<svg xmlns="http://www.w3.org/2000/svg" xmlns:xlink="http://www.w3.org/1999/xlink" preserveAspectRatio="xMidYMid meet" version="1.0" viewBox="65.7 98.0 294.1 228.8" zoomAndPan="magnify" style="fill: rgb(0, 0, 0);" original_string_length="1793"><g id="__id19_shw5l2pe3"><path d="M134.076 228.275L158.51 308.695 162.135 249.739 355.344 102.407z" style="fill: rgb(250, 184, 133);"/></g><g id="__id20_shw5l2pe3"><path d="M283.25,326.793c-0.72,0-1.435-0.194-2.066-0.575l-121.115-73.054c-1.134-0.684-1.855-1.885-1.928-3.208 c-0.072-1.322,0.516-2.595,1.568-3.398L352.918,99.227c1.394-1.063,3.314-1.095,4.742-0.08c1.428,1.014,2.03,2.84,1.485,4.504 l-72.094,220.386c-0.379,1.158-1.266,2.081-2.408,2.506C284.192,326.71,283.721,326.793,283.25,326.793z M169.238,249.353 l111.772,67.419l66.533-203.386L169.238,249.353z" style="fill: rgb(248, 166, 128);"/></g><g id="__id21_shw5l2pe3"><path d="M134.076,232.275c-0.678,0-1.354-0.172-1.965-0.516L67.891,195.55c-1.389-0.783-2.18-2.316-2.014-3.902 c0.167-1.585,1.259-2.921,2.78-3.399l67.951-21.34c2.108-0.659,4.354,0.511,5.015,2.618c0.662,2.108-0.511,4.353-2.618,5.015 l-59.143,18.574l54.205,30.563l186.761-106.239l-118.616,37.252c-2.105,0.662-4.353-0.511-5.015-2.618 c-0.662-2.108,0.51-4.353,2.618-5.015l154.33-48.468c1.952-0.613,4.05,0.345,4.865,2.219c0.816,1.875,0.088,4.063-1.689,5.074 L136.054,231.752C135.441,232.101,134.759,232.275,134.076,232.275z" style="fill: rgb(248, 166, 128);"/></g><g id="__id22_shw5l2pe3"><path d="M158.509,310.347c-0.609,0-1.223-0.139-1.79-0.423c-1.437-0.719-2.304-2.229-2.201-3.833l3.625-56.608 c0.09-1.394,0.9-2.641,2.138-3.289c1.238-0.647,2.723-0.603,3.921,0.119l36.75,22.167c1.101,0.664,1.815,1.817,1.92,3.099 c0.105,1.282-0.412,2.536-1.391,3.37l-40.375,34.441C160.366,310.021,159.442,310.347,158.509,310.347z M165.706,256.564 l-2.601,40.604l28.961-24.704L165.706,256.564z" style="fill: rgb(248, 166, 128);"/></g></svg>