<svg xmlns="http://www.w3.org/2000/svg" xmlns:xlink="http://www.w3.org/1999/xlink" preserveAspectRatio="xMidYMid meet" version="1.0" viewBox="16.0 16.0 480.0 480.0" zoomAndPan="magnify" style="fill: rgb(0, 0, 0);" original_string_length="1207"><g><g><g><g id="__id32_smnq7tzooi"><circle cx="256" cy="256" r="220" style="fill: rgb(243, 153, 16);"/></g><g id="__id33_smnq7tzooi"><path d="M356,236H204.284l61.318-61.318c7.81-7.811,7.81-20.474,0-28.284 c-7.811-7.811-20.474-7.811-28.284,0l-95.46,95.46c-7.24,7.24-7.844,18.88-1.328,26.815c1.308,1.597-3.854-3.772,96.788,96.93 c7.809,7.809,20.473,7.811,28.284,0c7.81-7.81,7.81-20.475,0-28.285L204.284,276H356c11.046,0,20-8.954,20-20 S367.046,236,356,236z" style="fill: rgb(255, 255, 255);"/></g><g id="__id34_smnq7tzooi"><path d="M256,16C123.362,16,16,123.344,16,256c0,132.638,107.343,240,240,240 c132.638,0,240-107.343,240-240C496,123.362,388.656,16,256,16z M256,456c-110.28,0-200-89.72-200-200S145.72,56,256,56 s200,89.72,200,200S366.28,456,256,456z" style="fill: rgb(255, 255, 255);"/></g></g></g></g></svg>