<?xml version="1.0" encoding="UTF-8"?><svg xmlns="http://www.w3.org/2000/svg" xmlns:xlink="http://www.w3.org/1999/xlink" height="518.3" preserveAspectRatio="xMidYMid meet" version="1.0" viewBox="-3.3 -4.9 327.9 518.3" width="327.9" zoomAndPan="magnify"><g id="change1_1"><path d="M319.995,351.298c-4.638,7.654-19.714-0.157-19.714-0.157s9.741,9.898,3.479,15 c-6.262,5.102-24.352-10.826-24.352-10.826s-2.783,15.464-11.828,15c-9.045-0.464-6.726-26.672-6.726-26.672 s-18.549-20.602-36.521-40.7l-2.694,2.416c0.021,1.1,0.042,2.195,0.064,3.31c0.154,1.041,0.303,2.072,0.45,3.097 c0.016,0.113,0.033,0.228,0.049,0.341c0.147,1.03,0.29,2.05,0.429,3.061c0.015,0.11,0.03,0.22,0.046,0.33 c0.138,1.006,0.272,2.001,0.402,2.985c0.015,0.113,0.03,0.225,0.045,0.338c0.128,0.976,0.252,1.941,0.371,2.892 c0.014,0.113,0.028,0.226,0.042,0.339c0.119,0.957,0.234,1.902,0.343,2.832c0.01,0.088,0.02,0.175,0.031,0.263 c0.11,0.941,0.215,1.869,0.314,2.779c0.008,0.075,0.016,0.148,0.024,0.223c0.1,0.923,0.195,1.831,0.283,2.719 c0.004,0.039,0.007,0.077,0.011,0.117c0.09,0.916,0.175,1.814,0.252,2.688h-0.004c0.316,3.582,0.523,6.829,0.578,9.586 c0.53,6.483,1.348,15.965,2.323,27.058c-1.577,0.475-3.153,0.896-4.729,1.338c0.754,39.086,1.366,77.694,1.109,101.674 c-0.149,13.879-0.588,22.868-1.461,24.2c-4.887,7.462-68.834,15.804-67.406,1.173c1.283-13.153,23.479-21.686,23.479-21.686 l-13.876-89.103c0,0-8.236,58.657-13.623,91.032c-1.787,10.738-3.26,18.587-4.015,20.442c-3.031,7.447-67.918,12.551-68.648,0.565 c-0.894-14.682,26.875-22.332,26.875-22.332s-8.812-49.183-7.312-106.05c-1.278-0.368-2.556-0.707-3.833-1.097 c0,0-0.828-8.304-0.135-33.257c0.037-1.698,0.098-3.61,0.135-4.47c0.056-1.335,0.141-2.662,0.242-3.984 c0.034-0.437,0.078-0.87,0.117-1.305c0.078-0.881,0.161-1.761,0.258-2.636c0.057-0.514,0.121-1.026,0.185-1.537 c0.099-0.793,0.203-1.584,0.317-2.371c0.077-0.536,0.157-1.071,0.241-1.604c0.12-0.76,0.249-1.515,0.383-2.269 c0.095-0.536,0.187-1.073,0.289-1.606c0.146-0.766,0.304-1.526,0.464-2.286c0.106-0.504,0.205-1.012,0.316-1.514 c0.26-1.172,0.535-2.338,0.825-3.494c0.161-0.642,0.336-1.275,0.506-1.912c0.15-0.563,0.296-1.127,0.453-1.686 c0.197-0.702,0.403-1.398,0.61-2.094c0.141-0.474,0.281-0.948,0.426-1.419c0.227-0.734,0.459-1.464,0.696-2.191 c0.131-0.402,0.264-0.803,0.398-1.203c0.261-0.778,0.526-1.553,0.798-2.322c0.1-0.283,0.204-0.564,0.306-0.846 c0.904-2.506,1.867-4.958,2.873-7.36c0.323-0.771,0.676-1.503,1.008-2.263c0.664-1.519,1.318-3.051,2.015-4.524 c-16.453-8.559-31.042-19.005-31.042-19.005l8.427-9.279c-6.958-3.711-15.134-9.599-23.656-18.245 c-21.337-21.646-26.749-38.964-26.749-38.964S2.72,189.414,0.865,177.353c-1.855-12.06,19.095-7.733,19.095-7.733 s-23.27-13.604-19.559-24.273c3.711-10.669,25.744,3.554,25.744,3.554s-13.684-20.252-3.943-23.499 c9.741-3.247,22.497,21.953,22.497,21.953s12.398-21.156,21.569-13.604c7.885,6.494-6.494,25.048-6.494,25.048 s7.624,11.393,20.09,25.417c-12.058-27.64-10.176-61.868,2.69-91.569c-12.203-3.932-14.377-17.5,6.443-25.691 c0,0-31.542,7.422-28.759-13.916c2.783-21.337,57.518-31.542,95.553-34.325c26.696-1.953,52.879,4.639,52.879,4.639 s-16.699-17.163-2.319-22.729s26.44,27.831,26.44,27.831S229.08,0.626,241.14,2.945c12.06,2.319,6.03,23.193,6.03,23.193 s43.188-12.487,44.994,5.566c1.392,13.916-19.018,14.379-19.018,14.379s27.367,19.482,32.47,45.458 c2.637,13.423,0.565,33.524-2.052,49.827c14.809,9.104,16.856,32.877,4.062,47.891c-17.21,20.196-45.65,22.075-50.101,22.247 c-13.824,11.826-30.656,20.247-48.6,24.88c31.166,4.953,53.553,32.347,53.553,32.347l-6.498,5.828 c17.916,21.186,34.561,41.792,34.561,41.792s25.512,2.94,28.527,10.826c3.015,7.885-11.828,10.975-11.828,10.975 S324.634,343.644,319.995,351.298z" fill="#ffd3a0"/></g><g id="change2_1"><path d="M78.524,499.95c0.73,11.986,65.617,6.882,68.648-0.565c0.755-1.855,2.228-9.703,4.015-20.442l-45.788-1.326 C105.399,477.618,77.63,485.268,78.524,499.95z M133.742,483.415c4.099-0.034,7.449,3.262,7.482,7.36 c0.034,4.099-3.262,7.449-7.36,7.482c-4.099,0.034-7.449-3.262-7.482-7.36C126.348,486.799,129.644,483.449,133.742,483.415z M155.206,498.701c-1.428,14.631,62.519,6.289,67.406-1.173c0.872-1.332,1.312-10.322,1.461-24.2l-45.387,3.688 C178.685,477.015,156.489,485.547,155.206,498.701z M209.804,481.862c4.099-0.034,7.449,3.262,7.482,7.36 c0.034,4.099-3.262,7.449-7.36,7.482c-4.099,0.034-7.449-3.262-7.482-7.36C202.41,485.246,205.705,481.896,209.804,481.862z M82.569,138.912c2.988-17.373,15.571-30.64,33.46-27.689c14.192,2.341,25.985,18.97,22.997,36.343 c-0.639,3.713-1.86,7.155-3.496,10.279c-0.215-0.039-0.426-0.09-0.643-0.125c1.209-2.905,1.883-6.089,1.883-9.432 c0-13.567-10.998-24.566-24.566-24.566c-13.567,0-24.566,10.998-24.566,24.566c0,13.567,10.998,24.565,24.566,24.565 c1.967,0,3.87-0.256,5.703-0.692c0.132,0.297,0.28,0.578,0.431,0.859c-4.15,1.426-8.613,1.893-13.131,1.115 C89.518,171.437,79.58,156.285,82.569,138.912z M167.042,150.813c-2.988-17.373,8.659-35.193,22.997-36.343 c20.096-1.611,31.841,9.814,34.829,27.187c1.547,8.994-0.758,17.509-5.498,24.022c2.564-3.879,4.065-8.523,4.065-13.521 c0-13.567-10.998-24.566-24.566-24.566c-13.567,0-24.566,10.998-24.566,24.566c0,13.567,10.998,24.566,24.566,24.566 c4.155,0,8.064-1.041,11.495-2.862c-2.898,1.7-6.088,2.933-9.504,3.521C185.172,180.081,170.031,168.186,167.042,150.813z" fill="#fff"/></g><g id="change3_1"><path d="M165.004,221.267c-1.081-4.454-1.642-11.131,2.242-16.957c5.467-8.2,14.859-7.998,20.893-6.801 c-0.153,1.739-0.399,3.552-0.777,5.365c-0.001,0.005-0.002,0.009-0.003,0.014c-0.117,0.562-0.25,1.124-0.393,1.683 c-0.032,0.123-0.067,0.245-0.1,0.368c-0.119,0.444-0.246,0.886-0.383,1.326c-0.051,0.165-0.106,0.328-0.16,0.491 c-0.131,0.397-0.271,0.791-0.418,1.182c-0.068,0.18-0.136,0.36-0.208,0.539c-0.151,0.378-0.313,0.751-0.481,1.121 c-0.079,0.174-0.155,0.35-0.238,0.522c-0.186,0.388-0.387,0.767-0.593,1.143c-0.078,0.142-0.15,0.288-0.231,0.428 c-0.585,1.018-1.249,1.986-1.999,2.888c-0.115,0.138-0.241,0.266-0.36,0.401c-0.267,0.303-0.539,0.602-0.827,0.888 c-0.159,0.157-0.327,0.305-0.493,0.457c-0.27,0.248-0.546,0.491-0.834,0.723c-0.188,0.151-0.382,0.296-0.577,0.44 c-0.292,0.215-0.594,0.422-0.904,0.621c-0.209,0.134-0.419,0.265-0.636,0.391c-0.329,0.191-0.672,0.367-1.02,0.539 c-0.22,0.109-0.437,0.221-0.666,0.321c-0.394,0.174-0.808,0.327-1.226,0.476c-0.206,0.074-0.403,0.156-0.615,0.224 c-0.642,0.204-1.306,0.384-2.004,0.528c-0.759,0.156-1.497,0.275-2.225,0.375c-0.263,0.036-0.522,0.066-0.781,0.096 c-0.453,0.052-0.9,0.092-1.341,0.124c-0.301,0.021-0.605,0.048-0.901,0.06c-0.586,0.024-1.163,0.033-1.729,0.024 C165.013,221.267,165.009,221.267,165.004,221.267z M224.792,333.672H94.219c0.013-0.37,0.025-0.691,0.035-0.928 c-0.036,0.86-0.097,2.772-0.135,4.47c-0.694,24.952,0.135,33.257,0.135,33.257c1.277,0.39,2.555,0.73,3.833,1.097 c41.414,11.916,83.042,11.826,124.876,0.086c1.576-0.442,3.152-0.863,4.729-1.338c-0.975-11.093-1.792-20.575-2.323-27.058 C225.314,340.5,225.107,337.253,224.792,333.672z M208.925,236.386c-0.024,0.006-0.048,0.012-0.071,0.018v0 c-5.726,1.475-11.563,2.561-17.452,3.246c-0.039,0.005-0.078,0.009-0.116,0.014c-5.844,0.675-11.737,0.953-17.621,0.823 c-0.08-0.002-0.159-0.003-0.238-0.005c-1.444-0.035-2.888-0.093-4.33-0.177c-0.043-0.002-0.085-0.006-0.128-0.008 c-4.382-0.26-8.749-0.751-13.078-1.476c-0.064-0.011-0.129-0.02-0.193-0.031c-1.386-0.235-2.768-0.495-4.146-0.778 c-0.155-0.032-0.31-0.066-0.465-0.098c-4.276-0.896-8.505-2.023-12.661-3.395c-11.732-3.873-22.892-9.64-32.917-17.472 l-20.293,31.439l-8.278,12.825c0,0,14.59,10.447,31.042,19.005c-0.697,1.473-1.351,3.005-2.015,4.524 c0.664-1.52,1.33-3.04,2.024-4.517c0.047-0.099,0.089-0.204,0.136-0.303c0.025-0.052,0.051-0.103,0.076-0.155h108.809 c0.005,0.031,0.011,0.062,0.016,0.092c1.462,8.347,2.883,16.877,4.128,25.043c0.004,0.028,0.009,0.056,0.013,0.085 c0.031,0.205,0.064,0.412,0.095,0.616l0.38-0.34l2.694-2.416l31.646-28.384l6.498-5.828 C262.477,268.732,240.091,241.338,208.925,236.386z M224.544,330.983c0.091,0.922,0.17,1.807,0.248,2.688h0.004 C224.719,332.797,224.634,331.899,224.544,330.983z" fill="#ec6459"/></g><g id="change4_1"><path d="M141.225,490.776c0.034,4.099-3.262,7.449-7.36,7.482c-4.099,0.034-7.449-3.262-7.482-7.36 c-0.034-4.099,3.262-7.449,7.36-7.482S141.191,486.677,141.225,490.776z M224.544,330.983c-0.004-0.039-0.007-0.077-0.011-0.117 c-0.088-0.887-0.183-1.796-0.283-2.719c-0.008-0.075-0.016-0.148-0.024-0.223c-0.099-0.91-0.204-1.837-0.314-2.779 c-0.01-0.088-0.02-0.175-0.031-0.263c-0.109-0.93-0.224-1.875-0.343-2.832c-0.014-0.113-0.028-0.226-0.042-0.339 c-0.119-0.952-0.243-1.916-0.371-2.892c-0.015-0.112-0.03-0.225-0.045-0.338c-0.13-0.984-0.264-1.979-0.402-2.985 c-0.015-0.11-0.03-0.22-0.046-0.33c-0.139-1.011-0.282-2.031-0.429-3.061c-0.016-0.113-0.033-0.227-0.049-0.341 c-0.147-1.025-0.296-2.055-0.45-3.097c-0.001-0.007-0.002-0.015-0.003-0.022c-0.016-0.111-0.033-0.222-0.05-0.333 c-0.129-0.868-0.257-1.736-0.391-2.614c-0.031-0.204-0.063-0.412-0.095-0.616c-0.004-0.028-0.009-0.057-0.013-0.085 c-1.244-8.163-2.666-16.696-4.128-25.043c-0.005-0.031-0.011-0.062-0.016-0.092H108.193c-2.212,4.639-4.276,9.519-6.111,14.598 c-0.102,0.282-0.205,0.563-0.306,0.846c-0.272,0.769-0.537,1.544-0.798,2.322c-0.134,0.4-0.267,0.801-0.398,1.203 c-0.237,0.727-0.47,1.457-0.696,2.191c-0.145,0.471-0.285,0.945-0.426,1.419c-0.207,0.696-0.413,1.392-0.61,2.094 c-0.156,0.559-0.303,1.123-0.453,1.686c-0.17,0.637-0.345,1.27-0.506,1.912c-0.29,1.157-0.564,2.322-0.825,3.494 c-0.111,0.502-0.21,1.01-0.316,1.514c-0.159,0.76-0.318,1.52-0.464,2.286c-0.101,0.533-0.194,1.07-0.289,1.606 c-0.134,0.754-0.263,1.51-0.383,2.269c-0.084,0.533-0.164,1.068-0.241,1.604c-0.114,0.787-0.218,1.578-0.317,2.371 c-0.064,0.512-0.128,1.023-0.185,1.537c-0.097,0.875-0.18,1.755-0.258,2.636c-0.039,0.435-0.083,0.869-0.117,1.305 c-0.102,1.321-0.186,2.648-0.242,3.984c-0.01,0.237-0.022,0.558-0.035,0.928h130.576 C224.719,332.797,224.634,331.899,224.544,330.983z M209.804,481.862c-4.099,0.034-7.394,3.384-7.36,7.483 c0.034,4.099,3.384,7.394,7.482,7.36c4.099-0.034,7.394-3.384,7.36-7.482C217.253,485.124,213.903,481.828,209.804,481.862z" fill="#99bba2"/></g><g id="change5_1"><path d="M222.963,371.654c0.754,39.086,1.366,77.694,1.109,101.674l-45.387,3.688l-13.876-89.103 c0,0-8.236,58.657-13.623,91.032l-45.788-1.326c0,0-8.812-49.183-7.312-106.05C139.501,383.484,181.129,383.393,222.963,371.654z M221.65,308.315c0.016,0.111,0.033,0.223,0.05,0.333c0.001,0.007,0.002,0.015,0.003,0.022c-0.022-1.116-0.043-2.21-0.064-3.31 l-0.38,0.34C221.393,306.579,221.522,307.447,221.65,308.315z M305.616,91.541c-5.102-25.976-32.47-45.458-32.47-45.458 s20.41-0.464,19.018-14.379c-1.805-18.054-44.994-5.566-44.994-5.566s6.03-20.873-6.03-23.193 c-12.06-2.319-8.349,25.512-8.349,25.512s-12.06-33.397-26.44-27.831s2.319,22.729,2.319,22.729s-26.183-6.592-52.879-4.639 c-38.036,2.783-92.77,12.988-95.553,34.325c-2.783,21.337,28.759,13.916,28.759,13.916c-20.82,8.191-18.646,21.759-6.443,25.691 c4.381,1.412,10.044,1.593,16.415-0.179c43.37-12.06,91.611-35.253,91.611-35.253s-24.584,13.916-15.307,24.12 c9.277,10.205,47.777-15.771,47.777-15.771s15.307,65.403,32.624,90.915c0,0,17.936-28.295,44.839-16.699 c1.071,0.462,2.087,0.994,3.051,1.587C306.181,125.065,308.252,104.964,305.616,91.541z M174.305,152.158 c0,13.567,10.998,24.566,24.566,24.566c4.155,0,8.064-1.041,11.495-2.862c3.645-1.935,6.741-4.757,9.005-8.183 c2.564-3.879,4.065-8.523,4.065-13.521c0-13.567-10.998-24.566-24.566-24.566C185.303,127.592,174.305,138.591,174.305,152.158z M117.907,172.161c0.132,0.297,0.28,0.578,0.431,0.859c0.792,1.468,1.802,2.734,2.892,3.812c3.348,3.191,7.311,5.251,11.524,6.397 c0,0,0,0,0,0h0l0,0c-3.194-2.923-6.325-5.766-8.602-8.942c-1.114-1.576-1.994-3.219-2.29-4.77c-0.172-0.775-0.148-1.505-0.041-2.218 c0.11-0.35,0.177-0.705,0.268-1.058c0.152-0.336,0.294-0.674,0.496-0.968c1.41-2.46,5.31-3.617,9.23-4.061 c3.989-0.477,8.195-0.415,12.535-0.403c-2.763-1.429-5.726-2.402-8.82-2.964c-0.215-0.039-0.426-0.09-0.643-0.125 c1.209-2.905,1.883-6.089,1.883-9.432c0-13.567-10.998-24.566-24.566-24.566c-13.567,0-24.566,10.998-24.566,24.566 c0,13.567,10.998,24.565,24.566,24.565C114.171,172.854,116.074,172.598,117.907,172.161z M188.139,197.509 c-0.001,0-0.002,0-0.003-0.001c-0.002,0.026-0.004,0.052-0.006,0.079C188.132,197.561,188.137,197.534,188.139,197.509z M165.017,221.267c-0.005,0-0.009-0.001-0.013-0.001c0,0,0,0.001,0,0.001C165.009,221.267,165.013,221.267,165.017,221.267z M136.588,194.949c0,0,6.41,25.939,28.417,26.317c-1.081-4.454-1.642-11.131,2.242-16.957c5.466-8.199,14.856-7.998,20.89-6.801 c0.611-6.948-0.27-12.733-0.27-12.733C167.924,199.019,136.588,194.949,136.588,194.949z M217.761,106.044 c0.726-2.967-5.918-7.142-14.84-9.325c-8.922-2.183-16.743-1.547-17.469,1.421c-0.726,2.967,5.918,7.142,14.84,9.325 C209.214,109.647,217.035,109.011,217.761,106.044z M109.023,104.749c9.031-1.675,15.901-5.467,15.344-8.471 c-0.557-3.004-8.329-4.081-17.361-2.406c-9.031,1.675-15.901,5.467-15.344,8.471C92.22,105.346,99.992,106.423,109.023,104.749z" fill="#342d2a"/></g></svg>