<?xml version="1.0" encoding="UTF-8"?><svg xmlns="http://www.w3.org/2000/svg" xmlns:xlink="http://www.w3.org/1999/xlink" height="514.4" preserveAspectRatio="xMidYMid meet" version="1.0" viewBox="-4.8 -10.0 328.8 514.4" width="328.8" zoomAndPan="magnify"><g id="change1_1"><path d="M304.635,198.134c0,0,18.739,14.724,9.37,25.432c-9.37,10.708-26.771,6.023-26.771,6.023 c0.889,10.67-2.686,16.872-6.944,20.476c0.211,0.203,0.352,0.34,0.352,0.34l-1.524,1.363c3.543,2.671,6.933,5.428,10.051,8.25 c26.046,23.566-4.341,68.217-4.341,68.217s7.442,6.822,9.302,17.984c0,0,6.201-2.481,9.922,1.86 c3.721,4.341-8.682,25.426-21.705,28.527c-4.494,1.07-9.504,1.327-14.139,1.206c3.985,26.485,4.217,39.562,4.217,39.562 s-9.727,2.122-24.378,4.388l1.229,38.777c1.79-1.909,4.463-3.446,7.758-1.305c5.267,3.423,1.597,11.075,0.368,13.31 c2.458,0.898,5.266,2.059,8.088,3.502c0.082,0.042,0.163,0.084,0.245,0.126c0.473,0.244,0.946,0.497,1.417,0.758 c0.084,0.046,0.168,0.092,0.251,0.139c1.1,0.615,2.19,1.273,3.248,1.977c0.037,0.024,0.072,0.05,0.109,0.075 c0.47,0.315,0.932,0.64,1.388,0.972c0.11,0.081,0.219,0.163,0.328,0.244c0.392,0.293,0.777,0.593,1.156,0.9 c0.109,0.089,0.219,0.176,0.326,0.266c0.42,0.349,0.83,0.707,1.228,1.074c0.045,0.042,0.092,0.081,0.137,0.123 c0.457,0.427,0.899,0.865,1.321,1.315c0.023,0.024,0.044,0.05,0.066,0.074c0.378,0.406,0.738,0.823,1.083,1.248 c0.087,0.107,0.17,0.217,0.255,0.326c0.281,0.359,0.549,0.725,0.804,1.097c0.083,0.121,0.166,0.242,0.246,0.365 c0.266,0.406,0.514,0.821,0.746,1.244c0.045,0.082,0.094,0.161,0.138,0.243c0.278,0.524,0.532,1.058,0.754,1.607c0,0,0,0,0,0.001 c0.174,0.43,0.333,0.865,0.47,1.31c0.064,0.209,0.103,0.414,0.12,0.615c0.007,0.088-0.006,0.173-0.007,0.26 c-0.002,0.111,0.004,0.222-0.012,0.33c-0.017,0.116-0.056,0.227-0.089,0.34c-0.022,0.075-0.034,0.152-0.063,0.226 c-0.05,0.131-0.123,0.258-0.194,0.385c-0.03,0.053-0.051,0.107-0.085,0.159c-0.089,0.14-0.198,0.276-0.312,0.411 c-0.031,0.036-0.055,0.074-0.087,0.11c-0.13,0.145-0.279,0.287-0.437,0.427c-0.027,0.024-0.05,0.049-0.078,0.073 c-0.17,0.146-0.359,0.289-0.558,0.43c-0.024,0.017-0.044,0.034-0.068,0.051c-0.207,0.143-0.431,0.283-0.667,0.421 c-0.018,0.01-0.032,0.021-0.05,0.032c-0.07,0.04-0.131,0.082-0.203,0.121c-0.276,0.152-0.598,0.295-0.909,0.44 c-0.112,0.052-0.21,0.107-0.326,0.158c-0.394,0.174-0.824,0.341-1.266,0.505c-0.121,0.045-0.23,0.092-0.354,0.136 c-0.465,0.165-0.964,0.323-1.474,0.477c-0.125,0.038-0.24,0.078-0.368,0.116c-0.534,0.156-1.101,0.304-1.679,0.45 c-0.125,0.031-0.241,0.065-0.368,0.096c-0.598,0.146-1.225,0.284-1.865,0.419c-0.126,0.027-0.244,0.055-0.371,0.081 c-0.662,0.136-1.351,0.264-2.052,0.389c-0.119,0.021-0.231,0.044-0.35,0.065c-0.712,0.124-1.448,0.24-2.196,0.353 c-0.123,0.019-0.241,0.039-0.365,0.057c-0.766,0.113-1.552,0.218-2.349,0.319c-0.114,0.014-0.223,0.031-0.338,0.045 c-0.799,0.1-1.617,0.192-2.443,0.281c-0.124,0.013-0.244,0.028-0.369,0.042c-0.841,0.088-1.698,0.169-2.562,0.246 c-0.114,0.01-0.224,0.022-0.338,0.032c-0.866,0.076-1.744,0.144-2.628,0.209c-0.121,0.009-0.238,0.019-0.359,0.028 c-0.891,0.063-1.791,0.12-2.696,0.173c-0.116,0.007-0.231,0.015-0.347,0.022c-0.894,0.051-1.795,0.094-2.698,0.135 c-0.132,0.006-0.263,0.014-0.396,0.019c-0.883,0.038-1.769,0.069-2.656,0.097c-0.154,0.005-0.308,0.012-0.463,0.016 c-0.865,0.026-1.73,0.045-2.595,0.062c-0.176,0.004-0.352,0.009-0.529,0.012c-0.828,0.014-1.652,0.022-2.476,0.029 c-0.213,0.002-0.428,0.006-0.641,0.007c-0.806,0.004-1.605,0.002-2.403-0.002c-0.223-0.001-0.449,0-0.671-0.001 c-0.759-0.005-1.508-0.017-2.256-0.029c-0.259-0.004-0.522-0.006-0.78-0.011c-0.706-0.014-1.4-0.034-2.094-0.054 c-0.289-0.008-0.583-0.014-0.869-0.023c-0.65-0.021-1.285-0.048-1.922-0.074c-0.318-0.013-0.642-0.024-0.956-0.038 c-0.614-0.028-1.21-0.062-1.808-0.096c-0.319-0.018-0.646-0.032-0.96-0.052c-0.562-0.034-1.102-0.074-1.647-0.112 c-0.334-0.024-0.678-0.044-1.005-0.069c-0.503-0.039-0.981-0.083-1.467-0.125c-0.346-0.03-0.704-0.058-1.042-0.09 c-0.45-0.043-0.872-0.091-1.305-0.137c-0.348-0.037-0.709-0.071-1.045-0.111c-0.39-0.045-0.751-0.096-1.125-0.144 c-0.35-0.045-0.715-0.088-1.05-0.136c-0.332-0.047-0.632-0.099-0.949-0.148c-0.345-0.054-0.704-0.106-1.03-0.162 c-0.292-0.051-0.551-0.106-0.828-0.159c-0.314-0.06-0.644-0.118-0.937-0.181c-0.273-0.059-0.508-0.122-0.762-0.184 c-0.258-0.062-0.535-0.122-0.772-0.187c-0.246-0.067-0.45-0.139-0.674-0.209c-0.204-0.064-0.43-0.125-0.614-0.191 c-0.204-0.073-0.362-0.151-0.541-0.226c-0.16-0.067-0.342-0.133-0.481-0.202c-0.179-0.09-0.307-0.184-0.45-0.277 c-0.092-0.06-0.211-0.117-0.287-0.178c-0.178-0.141-0.301-0.287-0.394-0.436c-0.01-0.016-0.033-0.031-0.042-0.047 c0-0.001-0.001-0.002-0.001-0.003c-0.548-0.974-1.264-3.195-1.833-6.332c-1.276-5.789-2.605-13.935-3.032-18.588l0.111-0.005 c-1.725-12.829-3.539-29.086-5.221-45.412c-5.239,0.16-10.491,0.196-15.666,0.062c-2.929-0.076-5.871-0.227-8.812-0.434 l-7.739,38.097c0.937,0.03,1.943,0.318,3.021,1.018c4.175,2.714,2.729,8.088,1.337,11.317c0.431,0.149,0.879,0.309,1.336,0.476 c0.05,0.018,0.101,0.037,0.151,0.056c0.401,0.147,0.811,0.302,1.229,0.463c0.092,0.035,0.185,0.072,0.277,0.108 c0.389,0.152,0.785,0.31,1.186,0.474c0.103,0.042,0.206,0.084,0.31,0.127c0.422,0.175,0.849,0.357,1.28,0.545 c0.076,0.033,0.151,0.065,0.227,0.098c1.03,0.454,2.081,0.946,3.136,1.477c0.068,0.034,0.137,0.071,0.205,0.106 c0.442,0.225,0.884,0.456,1.325,0.695c0.131,0.071,0.261,0.144,0.391,0.216c0.383,0.211,0.764,0.427,1.144,0.648 c0.147,0.086,0.292,0.172,0.439,0.259c0.377,0.225,0.75,0.456,1.122,0.691c0.132,0.084,0.264,0.166,0.395,0.251 c0.425,0.276,0.845,0.559,1.259,0.849c0.069,0.048,0.139,0.094,0.208,0.142c0.975,0.69,1.914,1.422,2.804,2.194 c0.109,0.094,0.213,0.192,0.32,0.287c0.325,0.29,0.644,0.584,0.954,0.885c0.125,0.122,0.247,0.245,0.37,0.368 c0.287,0.289,0.565,0.583,0.836,0.883c0.117,0.129,0.234,0.259,0.348,0.39c0.276,0.318,0.54,0.644,0.796,0.974 c0.089,0.115,0.182,0.227,0.269,0.343c0.332,0.446,0.65,0.9,0.942,1.367c0,0.001,0.001,0.001,0.001,0.002c0,0,0,0,0,0 c0.362,0.578,0.681,1.177,0.976,1.787c0.066,0.136,0.128,0.273,0.19,0.411c0.277,0.615,0.53,1.241,0.73,1.889 c0,0.001,0.001,0.002,0.001,0.004c0.523,1.701-0.567,3.084-2.838,4.19c-0.757,0.368-1.645,0.706-2.648,1.014 c-2.675,0.822-6.167,1.434-10.174,1.863c-4.507,0.483-9.665,0.735-15.038,0.795c-0.597,0.007-1.197,0.011-1.799,0.013 c-0.602,0.002-1.206,0.001-1.811-0.001c-1.211-0.005-2.428-0.02-3.645-0.043c-1.218-0.023-2.437-0.055-3.653-0.095 c-17.625-0.58-34.497-2.891-36.11-5.642c-0.109-0.186-0.212-0.405-0.313-0.64c-0.033-0.077-0.065-0.159-0.097-0.24 c-0.067-0.171-0.131-0.353-0.194-0.546c-0.034-0.105-0.069-0.205-0.102-0.316c-0.078-0.262-0.153-0.539-0.224-0.836 c-0.047-0.195-0.091-0.406-0.135-0.616c-0.026-0.124-0.052-0.247-0.078-0.376c-0.05-0.254-0.098-0.514-0.144-0.786 c-0.008-0.045-0.015-0.093-0.022-0.139c-0.094-0.566-0.177-1.184-0.256-1.827c-0.009-0.076-0.021-0.14-0.03-0.217 c-0.009-0.077-0.016-0.163-0.025-0.241c-0.049-0.429-0.095-0.875-0.138-1.335c-0.011-0.114-0.023-0.222-0.033-0.338 c-0.053-0.598-0.102-1.22-0.145-1.866c-0.007-0.108-0.013-0.222-0.02-0.331c-0.035-0.539-0.066-1.093-0.095-1.664 c-0.01-0.198-0.019-0.4-0.028-0.602c-0.023-0.513-0.044-1.038-0.063-1.574c-0.007-0.212-0.015-0.422-0.022-0.637 c-0.02-0.651-0.037-1.318-0.051-2c-0.002-0.091-0.005-0.177-0.006-0.268c-0.015-0.78-0.025-1.583-0.031-2.401 c-0.002-0.216-0.002-0.438-0.003-0.656c-0.003-0.612-0.005-1.232-0.004-1.864c0-0.277,0.001-0.555,0.002-0.836 c0.003-0.635,0.007-1.281,0.014-1.934c0.002-0.166,0.002-0.323,0.004-0.49l0.001,0c0.176-15.564,1.428-36.029,2.978-56.025 c-16.225-4.235-27.15-8.194-27.15-8.194l29.727-116.042l-31.8-10.826l2.524-7.712c-7.678-3.45-15.199-7.816-21.611-13.319 c-11.902,6.505-25.917,11.387-35.107,5.478c-18.739-12.047,0-30.786,0-30.786s-24.094,6.693-30.117-8.701 c-6.023-15.393,11.378-25.432,22.086-41.495c4.93-7.394,6.443-15.764,7.452-25.719c-3.199-6.257-5.934-13.437-6.408-20.304 c-0.92-13.337,9.024-33.514,18.308-41.643C57.638,53.071,86.041,9.912,157.396,1.37c95.036-11.378,147.239,51.534,117.122,62.911 c-3.812,1.44-8.226,2.192-13.026,2.41c15.733,23.483,23.769,52.28,21.763,79.149c15.862,10.162,40.789,15.371,40.789,31.547 C324.044,196.126,304.635,198.134,304.635,198.134z" fill="#f8a680"/></g><g id="change2_1"><path d="M202.387,489.823c0.065,0.41,0.133,0.801,0.202,1.185c-1.276-5.789-2.605-13.935-3.032-18.588l0.111-0.005 l33.571-1.573c-1.214-2.731-2.282-7.041,0.849-10.368c4.961-5.271,12.713,3.721,12.713,3.721s0.895-1.972,2.475-3.656 c1.79-1.909,4.463-3.446,7.758-1.305c5.267,3.423,1.597,11.075,0.368,13.31c0,0,0,0.001-0.001,0.001 c2.457,0.897,5.268,2.059,8.089,3.501c0.082,0.042,0.163,0.084,0.245,0.126c0.473,0.244,0.946,0.497,1.417,0.758 c0.084,0.046,0.168,0.092,0.251,0.139c1.1,0.615,2.19,1.273,3.248,1.977c0.037,0.024,0.072,0.05,0.109,0.075 c0.47,0.315,0.932,0.64,1.388,0.972c0.11,0.081,0.219,0.163,0.328,0.244c0.392,0.293,0.777,0.593,1.156,0.9 c0.109,0.089,0.219,0.176,0.326,0.266c0.42,0.349,0.83,0.707,1.228,1.074c0.045,0.042,0.092,0.081,0.137,0.123 c0.457,0.427,0.899,0.865,1.321,1.315c0.023,0.024,0.044,0.05,0.066,0.074c0.378,0.406,0.738,0.823,1.083,1.248 c0.087,0.107,0.17,0.217,0.255,0.326c0.281,0.359,0.549,0.725,0.804,1.097c0.083,0.121,0.166,0.242,0.246,0.365 c0.266,0.406,0.514,0.821,0.746,1.244c0.045,0.082,0.094,0.161,0.138,0.243c0.278,0.524,0.532,1.058,0.754,1.607c0,0,0,0,0,0.001 L202.387,489.823z M188.905,491.069c-0.087-0.116-0.18-0.228-0.269-0.343c-0.256-0.33-0.52-0.656-0.796-0.974 c-0.114-0.131-0.231-0.261-0.348-0.39c-0.271-0.299-0.549-0.594-0.836-0.883c-0.122-0.123-0.244-0.247-0.37-0.368 c-0.31-0.301-0.629-0.595-0.954-0.885c-0.107-0.096-0.211-0.193-0.32-0.287c-0.89-0.772-1.83-1.504-2.804-2.194 c-0.068-0.048-0.139-0.094-0.208-0.142c-0.415-0.29-0.835-0.573-1.259-0.849c-0.131-0.085-0.263-0.167-0.395-0.251 c-0.371-0.236-0.745-0.467-1.122-0.691c-0.146-0.087-0.292-0.173-0.439-0.259c-0.38-0.221-0.761-0.438-1.144-0.648 c-0.131-0.072-0.261-0.145-0.391-0.216c-0.441-0.239-0.883-0.47-1.325-0.695c-0.068-0.035-0.137-0.071-0.205-0.106 c-1.054-0.532-2.106-1.024-3.136-1.477c-0.076-0.034-0.151-0.065-0.227-0.098c-0.431-0.188-0.858-0.37-1.28-0.545 c-0.104-0.043-0.207-0.085-0.31-0.127c-0.401-0.164-0.796-0.322-1.186-0.474c-0.093-0.036-0.185-0.073-0.277-0.108 c-0.418-0.161-0.828-0.316-1.229-0.463c-0.05-0.018-0.101-0.038-0.151-0.056c-0.458-0.167-0.905-0.326-1.337-0.475 c0,0,0-0.001,0-0.001c1.391-3.229,2.838-8.603-1.337-11.317c-1.077-0.7-2.084-0.988-3.021-1.018 c-4.455-0.141-7.212,5.979-7.212,5.979s-7.752-8.992-12.713-3.721c-2.115,2.247-2.307,4.942-1.84,7.297l-28.676-1.24 c-0.089,7.81,0.095,14.375,0.645,19.039l77.412,0.355c0-0.001-0.001-0.001-0.001-0.002 C189.555,491.969,189.237,491.515,188.905,491.069z M248.048,421.762c-14.562,2.252-33.988,4.643-53.599,5.241 c-5.239,0.16-10.491,0.196-15.666,0.062c-2.929-0.076-5.871-0.227-8.812-0.434c-20.005-1.41-39.944-5.631-55.2-9.613 c-16.225-4.235-27.15-8.194-27.15-8.194l29.727-116.042l-31.8-10.826l2.524-7.712l17.782-60.216 c3.739,2.215,7.599,4.204,11.583,5.894c10.144,4.884,19.944,8.212,32.912,11.653c0.595,0.158,1.222,0.318,1.83,0.476 c1.654,0.319,3.313,0.62,4.98,0.875c0.066,0.01,0.133,0.021,0.199,0.031c1.89,0.286,3.787,0.53,5.689,0.733 c0.091,0.01,0.182,0.02,0.273,0.03c1.875,0.197,3.756,0.351,5.639,0.466c0.119,0.007,0.238,0.016,0.357,0.023 c1.858,0.108,3.718,0.175,5.579,0.204c0.142,0.002,0.285,0.006,0.427,0.008c1.838,0.022,3.677,0.003,5.514-0.053 c0.164-0.005,0.328-0.007,0.492-0.013c1.819-0.062,3.636-0.167,5.451-0.307c0.179-0.014,0.358-0.024,0.536-0.039 c1.802-0.147,3.6-0.336,5.394-0.56c0.187-0.023,0.375-0.043,0.562-0.067c1.79-0.232,3.574-0.507,5.352-0.816 c0.186-0.032,0.372-0.06,0.557-0.093c1.784-0.319,3.56-0.682,5.329-1.079c0.174-0.039,0.348-0.073,0.521-0.113 c1.787-0.41,3.563-0.865,5.33-1.357c0.149-0.041,0.298-0.078,0.447-0.12c1.797-0.508,3.582-1.061,5.354-1.654 c0.113-0.038,0.228-0.071,0.341-0.11c1.817-0.614,3.619-1.275,5.405-1.98c0.064-0.025,0.129-0.047,0.192-0.073 c1.848-0.733,3.679-1.513,5.49-2.344v0c3.332-1.529,6.59-3.234,9.771-5.098c19.818,9.616,40.153,28.85,42.928,31.522 c0.211,0.203,0.352,0.34,0.352,0.34l-1.524,1.363l-31.785,28.417c2.319,8.335,4.701,17.552,7.108,27.744 c6.895,29.197,11.143,52.441,13.768,69.882c3.985,26.485,4.217,39.562,4.217,39.562S262.698,419.496,248.048,421.762z M193.666,250.406c0,5.137,4.165,9.302,9.302,9.302s9.302-4.165,9.302-9.302s-4.165-9.302-9.302-9.302 S193.666,245.269,193.666,250.406z M215.991,282.034c0-5.138-4.165-9.302-9.302-9.302s-9.302,4.165-9.302,9.302 c0,5.137,4.165,9.302,9.302,9.302S215.991,287.171,215.991,282.034z" fill="#9ec2c1"/></g><g id="change3_1"><path d="M167.893,149.18c2.482,12.976-6.025,25.507-19.001,27.989c-7.288,1.394-14.434-0.679-19.74-5.063 c-0.701-0.58-1.361-1.21-1.994-1.868c-0.25-0.26-0.488-0.533-0.727-0.805c-0.225-0.256-0.456-0.505-0.671-0.771 c-2.379-2.953-4.096-6.51-4.858-10.494c-2.482-12.976,6.025-25.507,19.001-27.989C152.88,127.698,165.411,136.205,167.893,149.18z M259.263,135.444c-2.36-12.339-14.276-20.429-26.616-18.069c-10.699,2.046-18.191,11.28-18.458,21.741 c-0.628-0.08-1.251-0.119-1.867-0.114c-1.215,0.01-2.401,0.162-3.521,0.417c-2.364,0.527-4.495,1.514-6.464,2.661 c-1.944,1.201-3.779,2.533-5.315,4.195c2.123-0.742,4.182-1.449,6.26-1.974c2.049-0.579,4.125-0.945,6.095-1.052 c1.97-0.104,3.841,0.091,5.397,0.721c1.538,0.638,2.724,1.834,3.671,3.237c1.837,2.798,1.665,6.54,0.094,10.315 c-1.469,3.782-3.818,7.445-6.32,11.144c3.926-2.214,7.314-5.372,9.799-9.414c0.321-0.523,0.621-1.071,0.897-1.638 c0.899,0.703,1.844,1.346,2.839,1.907c4.525,2.555,9.938,3.591,15.441,2.539C253.533,159.699,261.623,147.783,259.263,135.444z M225.901,181.701c-1.918-0.861-4.07-0.972-5.925-0.748c-1.901,0.224-3.702,0.767-5.373,1.485c-3.335,1.467-6.199,3.58-8.669,5.996 c-2.451,2.437-4.589,5.168-6.066,8.329c2.977-1.774,5.716-3.596,8.469-5.295c2.735-1.706,5.467-3.29,8.227-4.495 c2.732-1.148,5.645-2.028,8.077-1.59c2.463,0.345,4.737,2.679,6.235,5.799c0.3-1.737,0.017-3.559-0.739-5.308 C229.364,184.142,227.842,182.535,225.901,181.701z M101.655,208.361c-4.718-3.795-9.39-7.777-11.199-12.993 c-1.015-2.846-1.105-5.88-0.596-8.97c0.252-1.549,0.646-3.113,1.075-4.737l0.642-2.516c0.207-0.805,0.406-1.98,0.432-2.926 c0.075-3.882-0.703-7.276-1.507-10.679c-0.774-3.03-1.635-5.971-2.694-8.914c2.737-5.277,5.257-10.576,7.36-16.143 c1.109-2.958,2.123-5.965,2.915-9.083c0.577-2.365,1.077-4.784,1.11-7.376c0.011-0.835-0.026-1.687-0.126-2.562 c-0.125-0.898-0.341-1.833-0.777-2.764c-0.213-0.464-0.489-0.924-0.829-1.352c-0.162-0.214-0.369-0.418-0.552-0.608l-0.525-0.465 c-1.423-1.232-3.493-1.99-5.429-1.849c-1.935,0.127-3.6,0.874-5.033,1.752c-1.434,0.896-2.696,1.942-3.838,3.077 c-2.272,2.278-4.211,4.77-5.944,7.381c-1.738,2.605-3.289,5.317-4.645,8.115c3.625-5.014,7.517-9.927,12.157-13.742 c2.28-1.835,4.96-3.491,7.375-3.432c1.175,0.048,2.176,0.511,3.068,1.339l0.325,0.327c0.073,0.099,0.145,0.167,0.208,0.268 c0.128,0.189,0.243,0.404,0.335,0.651c0.193,0.487,0.308,1.085,0.354,1.724c0.173,2.609-0.56,5.564-1.353,8.401 c-0.837,2.861-1.907,5.699-3.076,8.502c-2.361,5.586-4.994,11.174-7.902,16.486l-0.526,0.961l0.379,1.083 c1.074,3.067,2.143,6.256,2.962,9.422c0.808,3.146,1.517,6.432,1.487,9.332c-0.008,0.747-0.065,1.251-0.237,2.094l-0.525,2.421 c-0.374,1.66-0.75,3.396-0.976,5.196c-0.502,3.579-0.212,7.539,1.312,10.996c1.488,3.464,3.87,6.352,6.573,8.647 c2.686,2.259,5.477,4.219,8.338,6.097c1.345,0.858,2.705,1.692,4.078,2.505c3.739,2.215,7.599,4.204,11.583,5.894 c0.81,0.344,1.61,0.712,2.432,1.027c-5.869-3.398-11.424-7.226-16.702-11.375C102.665,209.172,102.16,208.767,101.655,208.361z" fill="#342d2a"/></g><g id="change4_1"><path d="M278.418,495.92c-13.697,7.542-71.029,6.694-73.995,1.422c0-0.001-0.001-0.002-0.001-0.003 c-0.548-0.974-1.264-3.195-1.833-6.332c-0.07-0.383-0.138-0.774-0.202-1.185l78.352,0.395c0.174,0.43,0.333,0.865,0.47,1.31 C281.732,493.228,280.659,494.686,278.418,495.92z M191.744,496.525c-0.2-0.648-0.453-1.274-0.73-1.889 c-0.062-0.138-0.125-0.275-0.19-0.411c-0.294-0.61-0.613-1.209-0.976-1.787c0,0,0,0,0,0l-77.412-0.355 c0.086,0.73,0.182,1.41,0.286,2.044c0.008,0.046,0.015,0.094,0.022,0.139c0.046,0.273,0.094,0.533,0.144,0.786 c0.025,0.129,0.051,0.252,0.078,0.376c0.044,0.21,0.088,0.421,0.135,0.616c0.071,0.297,0.146,0.573,0.224,0.836 c0.033,0.111,0.068,0.211,0.102,0.316c0.063,0.193,0.127,0.375,0.194,0.546c0.032,0.082,0.064,0.164,0.097,0.24 c0.1,0.235,0.203,0.454,0.313,0.64c1.613,2.751,18.485,5.063,36.11,5.642c1.216,0.04,2.435,0.072,3.653,0.095 c1.218,0.023,2.435,0.038,3.645,0.043c0.605,0.003,1.209,0.003,1.811,0.001c0.602-0.002,1.202-0.006,1.799-0.013 c5.374-0.06,10.531-0.312,15.038-0.795c4.006-0.429,7.499-1.041,10.174-1.863c1.003-0.308,1.891-0.646,2.648-1.014 c2.27-1.106,3.361-2.489,2.838-4.19C191.745,496.527,191.745,496.526,191.744,496.525z M214.189,139.117 c0.267-10.462,7.759-19.695,18.458-21.741c12.339-2.36,24.256,5.729,26.616,18.069c2.36,12.339-5.729,24.256-18.069,26.616 c-5.504,1.053-10.917,0.016-15.441-2.539c7.909,5.997,17.948,8.306,27.487,5.312c16.543-5.193,25.276-24.304,19.505-42.686 c-3.356-10.69-10.888-18.747-19.85-22.623c-3.01,0.509-6.87,0.585-11.041,0.102c-3.011-0.349-5.795-0.947-8.174-1.695 c-0.446,0.117-0.894,0.2-1.337,0.339c-15.958,5.01-24.608,22.97-20.022,40.734C212.937,138.998,213.561,139.037,214.189,139.117z M120.904,158.169c-2.482-12.976,6.025-25.507,19.001-27.989c12.976-2.482,25.507,6.025,27.989,19.001 c2.482,12.976-6.025,25.507-19.001,27.989c-7.288,1.394-14.434-0.679-19.74-5.063c3.391,2.923,7.4,5.128,11.917,6.335 c17.615,4.71,36.137-7.339,41.37-26.911c5.233-19.572-4.805-39.256-22.419-43.966s-36.137,7.339-41.37,26.911 c-3.408,12.747-0.31,25.513,7.111,34.187C123.382,165.71,121.666,162.153,120.904,158.169z M212.271,250.406 c0-5.137-4.165-9.302-9.302-9.302s-9.302,4.165-9.302,9.302s4.165,9.302,9.302,9.302S212.271,255.544,212.271,250.406z M215.991,282.034c0-5.138-4.165-9.302-9.302-9.302s-9.302,4.165-9.302,9.302c0,5.137,4.165,9.302,9.302,9.302 S215.991,287.171,215.991,282.034z" fill="#fff"/></g><g id="change5_1"><path d="M304.635,198.134c0,0,18.739,14.724,9.37,25.432c-9.37,10.708-26.771,6.023-26.771,6.023 c0.889,10.67-2.686,16.872-6.944,20.476c-2.776-2.672-23.11-21.906-42.928-31.522c7.31-4.282,14.199-9.424,20.465-15.516 c15.752-15.317,23.818-35.631,25.428-57.189c15.862,10.162,40.789,15.371,40.789,31.547 C324.044,196.126,304.635,198.134,304.635,198.134z M56.458,249.941c-21.705-31.628-14.108-72.403-14.108-72.403 s-6.397-7.705-11.577-17.836c-1.009,9.955-2.522,18.324-7.452,25.719c-10.708,16.062-28.109,26.102-22.086,41.495 c6.023,15.393,30.117,8.701,30.117,8.701s-18.739,18.74,0,30.786c9.191,5.908,23.205,1.026,35.107-5.478 C62.672,257.673,59.266,254.033,56.458,249.941z M261.492,66.691c4.8-0.218,9.214-0.97,13.026-2.41 c30.117-11.378-22.086-74.289-117.122-62.911C86.041,9.912,57.638,53.071,42.673,97.756c3.235-2.832,6.391-4.213,8.978-3.317 c1.613,0.558,2.61,1.982,3.186,3.888c1.781,5.899-0.542,16.488-1.687,20.98c-0.334,1.311-0.569,2.109-0.569,2.109 s0.217-0.464,0.604-1.23c2.308-4.57,10.875-20.251,18.311-17.064c9.74,4.174,0,31.628,0,31.628c1.356-2.798,2.907-5.51,4.645-8.115 c1.733-2.61,3.672-5.102,5.944-7.381c1.142-1.136,2.403-2.181,3.838-3.077c1.433-0.878,3.097-1.625,5.033-1.752 c1.936-0.141,4.007,0.617,5.429,1.849l0.525,0.465c0.183,0.19,0.39,0.394,0.552,0.608c0.34,0.428,0.616,0.888,0.829,1.352 c0.436,0.931,0.652,1.866,0.777,2.764c0.1,0.875,0.136,1.727,0.126,2.562c15.113-16.112,30.113-38.637,28.755-63.758 c0,0,34.802,18.739,52.203,12.047c17.401-6.693-3.346-28.109-3.346-28.109S228.37,68.197,261.492,66.691z M142.623,85.232 c-8.553,3.416-14.565,8.492-13.429,11.336c1.136,2.845,8.991,2.381,17.544-1.035c8.553-3.416,14.565-8.492,13.429-11.336 C159.03,81.352,151.176,81.816,142.623,85.232z M252.896,99.524c3.593-0.607,5.97-1.833,6.162-3.488 c0.353-3.043-6.778-6.369-15.927-7.429c-9.149-1.06-16.851,0.547-17.204,3.59c-0.237,2.041,2.904,4.207,7.753,5.733 c2.379,0.749,5.163,1.347,8.174,1.695C246.025,100.109,249.885,100.033,252.896,99.524z" fill="#fbe5a5"/></g></svg>