<?xml version="1.0" encoding="UTF-8"?><svg xmlns="http://www.w3.org/2000/svg" xmlns:xlink="http://www.w3.org/1999/xlink" height="517.3" preserveAspectRatio="xMidYMid meet" version="1.0" viewBox="-1.7 -7.6 375.0 517.3" width="375.0" zoomAndPan="magnify"><g id="change1_1"><path d="M371.576,337.905c-0.013,3.338-1.813,8.314-4.552,13.974c-0.391,0.809-0.802,1.631-1.229,2.465 c-1.282,2.501-2.714,5.102-4.231,7.728c-0.505,0.875-1.02,1.754-1.542,2.632c-1.043,1.756-2.114,3.513-3.192,5.247 c-0.539,0.867-1.08,1.729-1.621,2.582c-7.028,11.091-13.964,20.768-15.391,22.908c-0.127,0.19-0.275,0.33-0.437,0.445 c-0.024,0.017-0.047,0.038-0.073,0.054c-0.036,0.022-0.08,0.03-0.118,0.049c-0.113,0.057-0.232,0.102-0.359,0.131 c-0.058,0.013-0.114,0.028-0.175,0.035c-0.033,0.004-0.065,0.008-0.099,0.01c-0.13,0.008-0.272-0.003-0.416-0.018 c-0.069-0.007-0.134-0.007-0.205-0.019c-0.046-0.008-0.092-0.016-0.139-0.026c-0.038-0.008-0.082-0.024-0.121-0.034 c-0.168-0.041-0.337-0.083-0.521-0.148c-0.057-0.02-0.122-0.052-0.181-0.074c-0.028-0.011-0.057-0.024-0.085-0.035 c-0.081-0.032-0.164-0.066-0.249-0.102c-0.128-0.055-0.255-0.11-0.39-0.174c-0.13-0.062-0.269-0.134-0.405-0.204 c-0.04-0.02-0.077-0.038-0.117-0.059c-0.051-0.027-0.098-0.048-0.151-0.076c-0.108-0.058-0.226-0.126-0.338-0.189 c-0.168-0.093-0.339-0.19-0.515-0.293c-0.102-0.06-0.206-0.121-0.312-0.184c-0.121-0.072-0.249-0.151-0.373-0.227 c-0.324-0.198-0.666-0.412-1.016-0.635c-0.147-0.094-0.295-0.187-0.447-0.285c-0.462-0.298-0.949-0.614-1.455-0.946 c0,0-0.001-0.001-0.001-0.001l0,0c-3.914-2.566-9.146-6.061-15.933-9.24c-8.713-4.08-19.956-7.624-34.188-7.947 c-7.133-0.162-13.692-0.023-19.654,0.308l0,0l-5.191,13.984l-31.074,1.195l4.781,29.879l-9.284,1.434 c-0.392,5.082-0.998,10.096-1.909,14.654c-4.389,21.948-12.112,44.864-12.112,44.864s5.938-7.57,9.641-4.36 c3.072,2.663,1.091,6.933-1.242,10.171c0.338,0.26,0.679,0.527,1.024,0.8c0.034,0.027,0.067,0.054,0.101,0.08 c0.314,0.25,0.63,0.504,0.949,0.764c0.053,0.043,0.105,0.086,0.158,0.129c0.303,0.248,0.606,0.501,0.91,0.758 c0.063,0.053,0.125,0.105,0.188,0.158c0.304,0.258,0.607,0.52,0.91,0.786c0.058,0.051,0.117,0.101,0.175,0.153 c0.321,0.283,0.64,0.57,0.959,0.861c0.039,0.036,0.078,0.07,0.118,0.106c0.719,0.66,1.429,1.339,2.12,2.035 c0.043,0.043,0.084,0.087,0.127,0.13c0.289,0.294,0.576,0.589,0.858,0.888c0.104,0.11,0.204,0.222,0.307,0.332 c0.218,0.236,0.435,0.472,0.648,0.711c0.119,0.134,0.234,0.269,0.351,0.403c0.19,0.219,0.379,0.439,0.563,0.66 c0.122,0.146,0.241,0.293,0.36,0.44c0.172,0.213,0.342,0.427,0.508,0.641c0.119,0.154,0.236,0.308,0.351,0.462 c0.158,0.211,0.312,0.423,0.463,0.636c0.112,0.157,0.223,0.314,0.33,0.472c0.148,0.216,0.289,0.433,0.429,0.651 c0.099,0.154,0.199,0.308,0.294,0.462c0.14,0.228,0.271,0.456,0.402,0.685c0.083,0.146,0.17,0.291,0.249,0.437 c0.138,0.254,0.264,0.509,0.39,0.764c0.028,0.056,0.059,0.112,0.085,0.168c0.009,0.019,0.021,0.039,0.03,0.059 c0.021,0.045,0.044,0.09,0.065,0.135c0.176,0.377,0.339,0.754,0.484,1.131c0.549,1.427-0.175,2.524-1.868,3.348 c-0.212,0.103-0.438,0.202-0.68,0.296c-1.207,0.473-2.778,0.841-4.639,1.118c-0.372,0.055-0.756,0.107-1.151,0.156 c-2.764,0.338-6.067,0.503-9.707,0.531c-0.52,0.004-1.047,0.005-1.58,0.004c-2.133-0.006-4.366-0.054-6.662-0.139 c-0.6-0.022-1.204-0.047-1.812-0.074c-2.3-0.102-4.651-0.236-7.018-0.398c-0.598-0.041-1.198-0.084-1.798-0.128 c-0.645-0.048-1.29-0.097-1.935-0.148c-3.554-0.282-7.099-0.616-10.512-0.981c-0.576-0.062-1.148-0.124-1.716-0.187 c-2.272-0.253-4.473-0.517-6.568-0.787c-2.094-0.27-4.081-0.545-5.923-0.818c-0.921-0.137-1.805-0.273-2.649-0.408 c-5.482-0.877-9.229-1.701-9.942-2.236c-0.115-0.086-0.214-0.211-0.302-0.366c-0.005-0.009-0.01-0.018-0.015-0.027 c-0.026-0.048-0.044-0.118-0.068-0.172c-0.05-0.115-0.1-0.23-0.14-0.372c-0.006-0.022-0.012-0.044-0.018-0.067 c-0.02-0.078-0.034-0.174-0.051-0.259c-0.029-0.142-0.057-0.285-0.078-0.447c-0.004-0.035-0.009-0.069-0.013-0.105 c-0.012-0.104-0.02-0.218-0.029-0.329c-0.014-0.172-0.025-0.35-0.032-0.539c-0.001-0.043-0.003-0.086-0.004-0.13 c-0.004-0.126-0.006-0.256-0.007-0.39c-0.001-0.208,0.002-0.427,0.008-0.652c0.001-0.042,0.002-0.085,0.004-0.127 c0.004-0.149,0.007-0.294,0.014-0.45c0.012-0.254,0.03-0.525,0.048-0.797c0.001-0.012,0.002-0.024,0.003-0.037 c0.003-0.043,0.006-0.085,0.009-0.128c0.01-0.145,0.017-0.281,0.03-0.43c0.041-0.493,0.089-1.007,0.149-1.55 c0-0.004,0.001-0.008,0.001-0.012c0.059-0.54,0.128-1.107,0.204-1.693c0.025-0.192,0.054-0.396,0.081-0.593 c0.055-0.407,0.111-0.817,0.173-1.243c0.036-0.248,0.075-0.504,0.113-0.758c0.06-0.4,0.122-0.804,0.187-1.218 c0.043-0.272,0.087-0.548,0.132-0.826c0.068-0.418,0.137-0.842,0.209-1.273c0.048-0.288,0.096-0.576,0.146-0.869 c0.075-0.44,0.152-0.889,0.231-1.341c0.051-0.294,0.102-0.587,0.154-0.886c0.092-0.525,0.188-1.06,0.285-1.598 c0.04-0.225,0.079-0.446,0.12-0.673c0.135-0.749,0.274-1.51,0.416-2.282c0.061-0.331,0.123-0.67,0.185-1.004 c0.091-0.494,0.182-0.986,0.274-1.487c0.158-0.852,0.318-1.715,0.479-2.587c2.009-10.84,4.243-22.995,5.002-32.858 c0.257-3.337-0.062-7.284-0.771-11.575l-12.241,1.89l-7.52-46.626c-9.13,0.006-14.584-0.754-14.584-0.754l8.779-77.256 l-51.797,8.779c0,0-8.779,32.483-19.314,27.215c-10.535-5.267-8.779-23.704-8.779-23.704s-34.239,15.802-39.506,6.145 c-5.268-9.657,16.68-22.826,16.68-22.826s-34.239-1.756-32.483-14.047c1.756-12.291,29.849-7.901,29.849-7.901 S10.6,264.632,19.379,254.975c8.779-9.657,40.384,20.192,40.384,20.192l0,0v0l83.697-23.089 c-17.33-6.716-32.957-17.303-44.807-31.296c-1.035-1.223-2.006-2.457-2.985-3.689c-6.747-1.443-35.435-8.216-47.472-21.399 c-13.688-14.991-10.596-42.468,6.165-50.173c2.648-1.217,5.407-1.723,8.194-1.724c0.197-9.882,1.615-23.412,6.576-37.341 c-18.664-0.477-36.189-10.24-45.214-27.257C10.305,53.53,21.183,21.102,48.214,6.766c27.031-14.335,59.978-5.148,73.591,20.52 c3.932,7.414,5.809,15.392,5.855,23.335c7.272-2.381,15.326-4.252,24.285-5.467c39.098-5.301,68.916,0.469,91.113,11.194 c0.337-7.881,2.72-15.689,7.357-22.624c14.075-21.053,43.458-26.105,65.629-11.282s28.734,43.905,14.66,64.958 c-8.536,12.768-22.702,19.637-37.475,19.771c0.674,1.602,1.294,3.18,1.816,4.705c5.947,17.345-0.135,30.211-6.561,38.13 c3.388,23.735-0.289,47.761-12.352,67c2.737-1.794,5.247-3.479,7.418-4.963c1.213-0.829,2.324-1.597,3.319-2.291 c0.995-0.694,1.874-1.312,2.622-1.843c1.869-1.326,2.92-2.097,2.92-2.097s-1.756-30.727,9.657-33.361 c11.413-2.634,11.413,25.459,11.413,25.459s23.704-30.727,34.239-22.826c10.535,7.901-12.291,29.849-12.291,29.849 s25.306-9.97,31.605,0c6.299,9.97-26.337,20.192-26.337,20.192s27.215,0,23.704,9.657c-4.658,12.808-52.675,13.169-52.675,13.169 c-0.96,0.686-1.932,1.361-2.915,2.024c-1.965,1.327-3.971,2.61-6.005,3.848c-2.034,1.238-4.096,2.433-6.172,3.583 c-3.114,1.725-6.26,3.351-9.393,4.879c-3.133,1.528-6.252,2.957-9.312,4.289c-2.04,0.888-4.054,1.732-6.028,2.533 c-1.974,0.801-3.908,1.559-5.789,2.274c-9.405,3.575-17.479,6.076-22.533,7.53c-1.011,0.291-1.901,0.539-2.657,0.747 c-1.889,0.518-2.94,0.775-2.94,0.775l20.192,44.773c0,0,0.029-0.001,0.038-0.002c0.009,0,0.014-0.001,0.026-0.001 c0.021-0.001,0.034-0.001,0.071-0.003c0.059-0.003,0.138-0.006,0.239-0.009c0.02-0.001,0.031-0.001,0.053-0.002 c0.122-0.004,0.272-0.009,0.444-0.014c0.043-0.001,0.087-0.002,0.132-0.004c0.164-0.004,0.347-0.009,0.549-0.013 c0.034-0.001,0.063-0.001,0.098-0.002c0.246-0.005,0.518-0.009,0.815-0.013c0.035,0,0.073-0.001,0.108-0.001 c0.269-0.003,0.558-0.005,0.865-0.006c0.059,0,0.114,0,0.174-0.001c0.709-0.002,1.513,0.003,2.401,0.016 c0.065,0.001,0.13,0.002,0.196,0.003c0.909,0.015,1.903,0.04,2.974,0.078c0.064,0.002,0.129,0.005,0.194,0.007 c1.088,0.04,2.251,0.095,3.482,0.167c0.065,0.004,0.132,0.008,0.198,0.012c0.582,0.035,1.177,0.074,1.788,0.117 c0.044,0.003,0.087,0.006,0.132,0.009c0.656,0.047,1.327,0.099,2.013,0.157c0.052,0.004,0.105,0.009,0.158,0.014 c0.626,0.053,1.264,0.112,1.912,0.175c0.094,0.009,0.187,0.018,0.282,0.027c0.711,0.07,1.433,0.146,2.168,0.229 c0.001,0,0.002,0,0.003,0l0,0c4.759,0.538,9.991,1.35,15.36,2.571c14.339,3.259,29.637,9.901,36.572,13.109 c0.07-0.031,0.113-0.05,0.113-0.05s-2.9-7.788,2.147-9.66c4.009-1.487,7.438,3.37,9.427,7.169c0.001,0,0.002-0.001,0.003-0.002 c0.945-0.472,1.947-0.954,2.991-1.432c0.107-0.049,0.215-0.098,0.324-0.147c0.408-0.185,0.821-0.369,1.24-0.552 c0.129-0.056,0.257-0.113,0.388-0.169c0.461-0.198,0.927-0.394,1.398-0.586c0.071-0.029,0.139-0.058,0.21-0.087 c0.546-0.221,1.097-0.436,1.652-0.646c0.103-0.039,0.206-0.075,0.309-0.113c0.44-0.163,0.88-0.322,1.323-0.475 c0.172-0.059,0.343-0.117,0.516-0.175c0.39-0.131,0.78-0.257,1.172-0.379c0.175-0.055,0.349-0.11,0.524-0.162 c0.456-0.137,0.91-0.265,1.364-0.387c0.097-0.026,0.195-0.055,0.292-0.081c0.544-0.142,1.086-0.271,1.625-0.387 c0.146-0.032,0.291-0.058,0.436-0.087c0.394-0.08,0.785-0.154,1.173-0.219c0.184-0.031,0.367-0.058,0.551-0.085 c0.361-0.053,0.717-0.098,1.072-0.135c0.173-0.019,0.347-0.039,0.519-0.054c0.445-0.038,0.884-0.063,1.316-0.074 c0.066-0.002,0.134-0.008,0.2-0.009c0.491-0.007,0.97,0.008,1.44,0.039c0.142,0.009,0.279,0.028,0.419,0.041 c0.332,0.031,0.658,0.072,0.977,0.125c0.157,0.026,0.311,0.056,0.464,0.087c0.308,0.063,0.607,0.14,0.901,0.226 c0.133,0.039,0.269,0.074,0.399,0.118c0.122,0.041,0.242,0.086,0.361,0.132c0.285,0.104,0.563,0.219,0.83,0.352 C371.007,334.626,371.583,335.998,371.576,337.905z" fill="#c4783e"/></g><g id="change2_1"><path d="M141.068,386.538c-9.13,0.006-14.584-0.754-14.584-0.754l8.779-77.256l-51.797,8.779l-23.704-42.14v0 l83.697-23.089c38.354,14.862,85.059,10.74,117.682-17.537c5.974-5.178,10.948-11.091,14.989-17.536 c2.737-1.794,5.247-3.479,7.418-4.963c1.213-0.829,2.324-1.597,3.319-2.291c0.995-0.694,1.874-1.312,2.622-1.843 c1.869-1.326,2.92-2.097,2.92-2.097l19.314,42.14c-0.96,0.686-1.932,1.361-2.915,2.024c-1.965,1.327-3.971,2.61-6.005,3.848 c-2.034,1.239-4.096,2.433-6.172,3.583c-3.114,1.725-6.26,3.351-9.393,4.879c-3.133,1.528-6.252,2.957-9.312,4.289 c-2.04,0.888-4.054,1.732-6.028,2.533c-1.974,0.801-3.908,1.559-5.789,2.274c-9.405,3.575-17.479,6.076-22.533,7.53 c-1.011,0.291-1.901,0.539-2.657,0.747c-1.889,0.518-2.94,0.775-2.94,0.775l20.192,44.773c0,0-1.68,6.049-7.026,14.252 c-3.437,5.273-8.388,11.436-15.381,17.453c-2.331,2.006-4.889,3.995-7.694,5.93c-5.609,3.87-12.204,7.523-19.94,10.65 C181.038,384.446,156.078,386.529,141.068,386.538z" fill="#fdcdb9"/></g><g id="change3_1"><path d="M279.681,326.149c0.001,0,0.002,0,0.003,0l-18.341,49.408l-5.191,13.984l-31.074,1.195l4.781,29.879 l-9.284,1.434l-59.745,9.225l-12.241,1.89l-7.52-46.626c15.01-0.01,39.969-2.092,67.062-13.045c7.737-3.128,14.331-6.78,19.94-10.65 c2.804-1.935,5.362-3.925,7.694-5.93c6.993-6.017,11.945-12.18,15.381-17.453c5.346-8.202,7.026-14.252,7.026-14.252v0 c0,0,0.029-0.001,0.038-0.002c0.006,0,0.016-0.001,0.026-0.001c0.021-0.001,0.034-0.001,0.071-0.003 c0.059-0.003,0.141-0.006,0.239-0.009c0.02-0.001,0.031-0.001,0.053-0.002c0.121-0.004,0.274-0.009,0.444-0.014 c0.043-0.001,0.087-0.002,0.132-0.004c0.164-0.004,0.347-0.009,0.549-0.013c0.034-0.001,0.063-0.001,0.098-0.002 c0.246-0.005,0.518-0.009,0.815-0.013c0.035,0,0.073-0.001,0.108-0.001c0.269-0.003,0.559-0.005,0.865-0.006 c0.059,0,0.114,0,0.174-0.001c0.709-0.002,1.513,0.003,2.401,0.016c0.065,0.001,0.13,0.002,0.196,0.003 c0.909,0.015,1.903,0.04,2.974,0.078c0.064,0.002,0.129,0.005,0.194,0.007c1.088,0.04,2.251,0.095,3.482,0.167 c0.065,0.004,0.132,0.008,0.198,0.012c0.582,0.035,1.178,0.074,1.788,0.117c0.044,0.003,0.087,0.006,0.132,0.009 c0.656,0.047,1.327,0.099,2.013,0.157c0.052,0.004,0.105,0.009,0.158,0.014c0.626,0.053,1.264,0.112,1.912,0.175 c0.094,0.009,0.187,0.018,0.282,0.027C278.224,325.99,278.946,326.066,279.681,326.149z M316.043,22.442 c-22.171-14.822-51.554-9.771-65.629,11.282c-4.637,6.935-7.02,14.743-7.357,22.624c-22.196-10.725-52.015-16.495-91.113-11.194 c-8.959,1.215-17.012,3.086-24.285,5.467c-0.046-7.943-1.923-15.921-5.855-23.335C108.192,1.618,75.245-7.569,48.214,6.766 C21.183,21.102,10.305,53.53,23.918,79.198c9.025,17.018,26.55,26.78,45.214,27.257c-4.961,13.929-6.379,27.458-6.576,37.341 c0.334,0,0.667-0.008,1.002,0.006c13.871,0.605,28.217,13.634,33.155,18.55c12.299-7.446,66.273-42.484,65.468-83.505 c0,0,69.573,38.011,111.72,27.744c7.463,13.495,12.439,28.394,14.582,43.415c6.425-7.919,12.507-20.786,6.561-38.13 c-0.523-1.525-1.142-3.103-1.816-4.705c14.773-0.134,28.939-7.003,37.475-19.771C344.777,66.347,338.214,37.264,316.043,22.442z M149.312,162.414c4.496,1.887,8.863,3.232,13.174,4.507c4.297,1.291,8.517,2.467,12.54,3.8c1.949,0.715,3.989,1.414,5.697,2.246 c1.746,0.852,3.417,1.917,5.014,3.188c3.2,2.551,6.085,5.876,8.722,9.885c0.359-4.863-1.295-9.834-4.327-13.999 c-1.547-2.058-3.447-3.942-5.662-5.401c-2.239-1.509-4.491-2.486-6.825-3.38c-4.651-1.642-9.413-2.457-14.162-2.618 C158.738,160.511,153.975,160.889,149.312,162.414z M179.155,129.31c8.811-1.059,15.668-4.293,15.316-7.224 c-0.352-2.93-7.781-4.447-16.592-3.388c-8.811,1.059-15.668,4.293-15.316,7.224C162.915,128.852,170.344,130.369,179.155,129.31z M273.993,143.515c1.404-2.596-3.787-8.123-11.594-12.343c-7.807-4.22-15.273-5.537-16.677-2.941 c-1.404,2.596,3.787,8.123,11.594,12.343S272.589,146.111,273.993,143.515z M242.634,164.059 c-9.387,0.644-16.962,7.117-19.493,15.635c-0.929-0.064-1.833-0.027-2.717,0.051c-0.152,0.013-0.308,0.017-0.458,0.033 c-4.066,0.517-7.787,1.909-11.08,4.055c3.887-0.263,7.648-0.591,11.174-0.324c1.742,0.135,3.427,0.431,4.733,1.029 c1.311,0.615,2.082,1.42,2.525,2.584c0.865,2.384-0.124,5.62-1.992,8.642c-1.803,3.063-4.17,5.987-6.594,9.041c0,0,0,0,0,0 c3.019-1.23,5.745-3.057,8.147-5.362c1.232,1.569,2.676,2.956,4.279,4.135c4.033,2.968,9.09,4.586,14.477,4.217 c12.077-0.829,21.196-11.291,20.368-23.368C265.173,172.349,254.711,163.231,242.634,164.059z M182.168,221.559 c0.017,0.758,0.057,1.519,0.156,2.281C182.225,223.079,182.186,222.317,182.168,221.559z M182.263,218.705 c7.017,0.848,15.815,2.666,22.46,6.561c6.025,3.532,8.469,8.82,8.291,13.522v0c12.868-4.274,20.774-16.913,20.774-16.913 s-26.601,1.856-47.635-16.084C186.154,205.791,182.908,211.715,182.263,218.705z M182.252,218.801 c0.003-0.032,0.008-0.063,0.011-0.095c-0.002,0-0.005-0.001-0.007-0.001C182.253,218.736,182.255,218.769,182.252,218.801z M182.651,225.669c0.267,1.156,0.653,2.296,1.178,3.405C183.303,227.965,182.919,226.823,182.651,225.669z M185.742,232.121 c0.045,0.057,0.079,0.117,0.125,0.173c0.091,0.112,0.209,0.214,0.304,0.324c0.289,0.334,0.596,0.662,0.923,0.983 c0.16,0.156,0.318,0.313,0.487,0.466c0.496,0.451,1.019,0.892,1.599,1.311l0,0l-3.187-2.967 C185.911,232.314,185.821,232.22,185.742,232.121z" fill="#342d2a"/></g><g id="change4_1"><path d="M182.324,223.84c-0.225-1.728-0.223-3.462-0.068-5.136c7.018,0.848,15.819,2.665,22.467,6.562 c6.025,3.532,8.469,8.82,8.291,13.522v0c-0.206,5.441-3.925,10.098-9.694,10.338c-10.756,0.448-13.349-13.012-13.349-13.012 l-0.79-0.735l0,0l-3.313-3.084c-0.402-0.492-0.761-0.999-1.089-1.513c-0.029-0.046-0.058-0.091-0.086-0.137 c-0.319-0.513-0.608-1.034-0.86-1.565c-0.001-0.002-0.002-0.004-0.003-0.005c-0.526-1.109-0.91-2.251-1.178-3.405 c-0.003-0.013-0.005-0.027-0.009-0.04c-0.125-0.547-0.223-1.096-0.298-1.646C182.337,223.935,182.33,223.888,182.324,223.84z M229.195,502.784c-0.125-0.255-0.252-0.51-0.39-0.764c-0.042-0.077-0.087-0.154-0.132-0.231c0.216,0.387,0.419,0.774,0.607,1.163 C229.254,502.896,229.222,502.84,229.195,502.784z M228.154,500.898c-0.095-0.154-0.195-0.308-0.294-0.462 c-0.14-0.217-0.282-0.435-0.429-0.651c-0.108-0.158-0.219-0.315-0.33-0.472c-0.151-0.213-0.305-0.425-0.463-0.636 c-0.116-0.155-0.232-0.309-0.351-0.462c-0.166-0.215-0.336-0.428-0.508-0.641c-0.119-0.147-0.238-0.294-0.36-0.44 c-0.184-0.221-0.373-0.441-0.563-0.66c-0.117-0.135-0.232-0.27-0.351-0.403c-0.212-0.239-0.429-0.475-0.648-0.711 c-0.103-0.111-0.203-0.222-0.307-0.332c-0.282-0.299-0.568-0.595-0.858-0.888c-0.043-0.043-0.084-0.087-0.127-0.13 c-0.691-0.696-1.401-1.375-2.12-2.035c-0.039-0.036-0.078-0.071-0.118-0.106c-0.318-0.291-0.638-0.578-0.959-0.861 c-0.058-0.051-0.117-0.102-0.175-0.153c-0.303-0.266-0.607-0.528-0.91-0.786c-0.063-0.053-0.125-0.106-0.188-0.158 c-0.304-0.257-0.608-0.51-0.91-0.758c-0.053-0.043-0.105-0.086-0.158-0.129c-0.318-0.26-0.635-0.515-0.949-0.764 c-0.034-0.027-0.067-0.054-0.101-0.08c-0.345-0.273-0.687-0.54-1.024-0.8c2.333-3.238,4.315-7.508,1.242-10.171 c-3.703-3.209-9.641,4.36-9.641,4.36s1.604-10.936-5.336-10.022c-4.286,0.564-5.211,4.713-5.059,8.74l-39.503-4.874 c-0.018,0.1-0.036,0.197-0.055,0.296c-0.161,0.871-0.321,1.734-0.479,2.587c-0.093,0.501-0.183,0.993-0.274,1.487 c-0.062,0.334-0.124,0.674-0.185,1.004c-0.142,0.772-0.28,1.533-0.416,2.282c-0.041,0.227-0.08,0.448-0.12,0.673 c-0.097,0.539-0.192,1.073-0.285,1.598c-0.053,0.299-0.103,0.591-0.154,0.886c-0.079,0.452-0.156,0.901-0.231,1.341 c-0.05,0.293-0.098,0.582-0.146,0.869c-0.072,0.431-0.142,0.855-0.209,1.273c-0.045,0.278-0.089,0.554-0.132,0.826 c-0.065,0.415-0.127,0.818-0.187,1.218c-0.038,0.254-0.077,0.51-0.113,0.758c-0.062,0.426-0.118,0.836-0.173,1.243 c-0.027,0.197-0.056,0.401-0.081,0.593c-0.031,0.24-0.056,0.462-0.084,0.695l75.313,6.694c-0.029-0.05-0.057-0.1-0.086-0.15 C228.426,501.354,228.294,501.126,228.154,500.898z M228.645,501.734l-0.003,0c0.011,0.019,0.021,0.037,0.032,0.056 C228.663,501.77,228.655,501.752,228.645,501.734z M367.2,333.138c-0.153-0.032-0.308-0.061-0.464-0.087 c-0.319-0.053-0.646-0.094-0.977-0.125c-0.14-0.013-0.277-0.031-0.419-0.041c-0.47-0.031-0.95-0.047-1.44-0.039 c-0.066,0.001-0.134,0.007-0.2,0.009c-0.432,0.011-0.871,0.036-1.316,0.074c-0.172,0.015-0.345,0.035-0.519,0.054 c-0.354,0.038-0.711,0.082-1.072,0.135c-0.183,0.027-0.366,0.054-0.551,0.085c-0.388,0.065-0.78,0.139-1.173,0.219 c-0.146,0.03-0.29,0.055-0.436,0.087c-0.539,0.117-1.08,0.245-1.625,0.387c-0.097,0.025-0.195,0.055-0.292,0.081 c-0.454,0.122-0.909,0.25-1.364,0.387c-0.175,0.053-0.349,0.108-0.524,0.162c-0.391,0.122-0.782,0.248-1.172,0.379 c-0.172,0.058-0.344,0.115-0.516,0.175c-0.443,0.153-0.884,0.312-1.323,0.475c-0.103,0.038-0.206,0.074-0.309,0.113 c-0.555,0.209-1.106,0.425-1.652,0.646c-0.071,0.029-0.14,0.058-0.21,0.087c-0.471,0.192-0.937,0.388-1.398,0.586 c-0.13,0.056-0.258,0.112-0.388,0.169c-0.419,0.183-0.832,0.366-1.24,0.552c-0.108,0.049-0.216,0.098-0.324,0.147 c-1.043,0.478-2.047,0.961-2.991,1.432c-0.001,0-0.002,0.001-0.003,0.002c-1.99-3.8-5.418-8.656-9.427-7.169 c-5.047,1.872-2.147,9.66-2.147,9.66s-0.043,0.019-0.113,0.05c-0.965,0.428-8.09,3.765-7.467,8.755 c0.369,2.955,2.671,4.046,5.583,4.189l-14.547,28.423c0,0,0,0,0,0c6.787,3.179,12.02,6.673,15.933,9.24l36.905-59.091 C367.754,333.268,367.481,333.196,367.2,333.138z" fill="#ea6648"/></g><g id="change5_1"><path d="M280.439,173.269c3.391,18.252-7.177,35.522-23.603,38.574c-9.472,1.76-18.808-1.612-25.679-8.265 c4.033,2.968,9.09,4.586,14.477,4.217c12.077-0.829,21.196-11.291,20.368-23.368c-0.828-12.077-11.291-21.196-23.368-20.368 c-9.387,0.644-16.962,7.117-19.493,15.635c-0.929-0.064-1.833-0.027-2.717,0.051c-1.005-16.478,9.089-31.203,24.133-33.998 C260.983,142.695,277.049,155.017,280.439,173.269z M229.31,503.01c-0.009-0.019-0.02-0.039-0.03-0.059 c-0.197-0.407-0.408-0.813-0.636-1.218l-75.316-6.695c0,0.002,0,0.003,0,0.004c-0.068,0.556-0.127,1.089-0.178,1.6 c-0.003,0.033-0.006,0.064-0.009,0.096c-0.047,0.481-0.087,0.941-0.118,1.379c-0.001,0.012-0.003,0.027-0.003,0.039 c-0.001,0.012-0.002,0.025-0.003,0.037c-0.002,0.035-0.003,0.064-0.005,0.099c-0.027,0.402-0.047,0.787-0.058,1.149 c-0.001,0.043-0.003,0.085-0.004,0.127c-0.001,0.047,0.001,0.085,0,0.131c-0.007,0.319-0.009,0.627-0.001,0.911 c0.001,0.044,0.003,0.087,0.004,0.13c0.002,0.065,0.01,0.118,0.013,0.181c0.012,0.24,0.025,0.478,0.048,0.687 c0.004,0.036,0.009,0.07,0.013,0.105c0.011,0.087,0.03,0.154,0.043,0.235c0.027,0.163,0.05,0.332,0.086,0.472 c0.006,0.023,0.012,0.044,0.018,0.067c0.03,0.107,0.071,0.187,0.106,0.279c0.034,0.088,0.062,0.192,0.101,0.265 c0.005,0.009,0.01,0.018,0.015,0.027c0.087,0.155,0.187,0.28,0.302,0.366c0.713,0.535,4.46,1.359,9.942,2.236 c0.843,0.135,1.728,0.271,2.649,0.408c1.842,0.273,3.828,0.548,5.923,0.818c1.047,0.135,2.121,0.268,3.218,0.4 c1.096,0.131,2.215,0.261,3.35,0.387c0.568,0.063,1.14,0.126,1.716,0.187c1.152,0.123,2.319,0.243,3.497,0.358 c1.177,0.115,2.365,0.226,3.559,0.332c1.148,0.102,2.302,0.199,3.457,0.29c0.645,0.051,1.29,0.101,1.935,0.148 c0.6,0.044,1.199,0.087,1.798,0.128c1.197,0.082,2.39,0.157,3.574,0.224c1.158,0.066,2.307,0.124,3.444,0.174 c0.608,0.027,1.212,0.052,1.812,0.074c1.148,0.042,2.28,0.076,3.392,0.099c1.112,0.023,2.203,0.037,3.27,0.04 c0.533,0.001,1.06,0,1.58-0.004c1.56-0.012,3.058-0.049,4.479-0.115c1.894-0.087,3.649-0.223,5.228-0.416 c0.395-0.048,0.779-0.1,1.151-0.156c1.861-0.277,3.432-0.645,4.639-1.118c0.241-0.094,0.468-0.193,0.68-0.296 c0.847-0.412,1.451-0.892,1.775-1.448c0.324-0.556,0.368-1.187,0.093-1.9C229.696,503.853,229.512,503.431,229.31,503.01z M369.691,333.967c-0.267-0.133-0.544-0.249-0.83-0.352c-0.057-0.021-0.117-0.037-0.175-0.056c-0.218-0.075-0.437-0.149-0.663-0.213 h0l-36.905,59.091c0,0,0.001,0.001,0.001,0.001c0.511,0.335,0.989,0.646,1.455,0.946c0.152,0.098,0.3,0.191,0.447,0.285 c0.352,0.225,0.691,0.436,1.016,0.635c0.125,0.076,0.253,0.155,0.373,0.227c0.034,0.021,0.064,0.036,0.098,0.056 c0.293,0.174,0.572,0.333,0.842,0.481c0.072,0.04,0.154,0.091,0.225,0.129c0.052,0.028,0.099,0.049,0.151,0.076 c0.023,0.012,0.042,0.019,0.065,0.031c0.252,0.13,0.489,0.242,0.72,0.345c0.041,0.018,0.087,0.043,0.127,0.061 c0.084,0.036,0.167,0.07,0.249,0.102c0.006,0.002,0.01,0.003,0.016,0.005c0.218,0.086,0.42,0.147,0.618,0.202 c0.049,0.014,0.106,0.039,0.154,0.05c0.039,0.009,0.083,0.026,0.121,0.034c0.022,0.005,0.039,0.001,0.06,0.005 c0.189,0.037,0.359,0.043,0.528,0.044c0.055,0.001,0.12,0.018,0.173,0.015c0.034-0.002,0.066-0.007,0.099-0.01 c0.168-0.019,0.315-0.079,0.46-0.143c0.024-0.01,0.052-0.012,0.075-0.023c0.038-0.019,0.082-0.027,0.118-0.049 c0.192-0.119,0.364-0.281,0.509-0.499c0.768-1.152,3.134-4.49,6.251-9.057c2.672-3.915,5.896-8.732,9.14-13.851 c0.541-0.853,1.082-1.715,1.621-2.582c1.078-1.734,2.149-3.491,3.192-5.247c0.522-0.878,1.036-1.756,1.542-2.632 c1.516-2.626,2.949-5.228,4.231-7.728c0.427-0.834,0.838-1.656,1.229-2.465c2.74-5.66,4.539-10.637,4.552-13.974 C371.583,335.998,371.007,334.626,369.691,333.967z" fill="#fff"/></g></svg>