<svg xmlns="http://www.w3.org/2000/svg" xmlns:xlink="http://www.w3.org/1999/xlink" preserveAspectRatio="xMidYMid meet" version="1.0" viewBox="-0.2 -5.5 495.9 298.0" zoomAndPan="magnify" style="fill: rgb(0, 0, 0);" original_string_length="10938"><defs><clipPath id="__id5_s1xickaggm"><path d="M 214 230 L 278 230 L 278 292.441406 L 214 292.441406 Z M 214 230"/></clipPath><clipPath id="__id6_s1xickaggm"><path d="M 354 46 L 495.640625 46 L 495.640625 222 L 354 222 Z M 354 46"/></clipPath></defs><g><g id="__id7_s1xickaggm"><path d="M 315.855469 49.207031 C 317.195312 52.144531 318.195312 55.222656 319.027344 58.339844 C 320.902344 65.339844 331.753906 62.367188 329.878906 55.347656 C 328.789062 51.277344 327.316406 47.363281 325.570312 43.53125 C 324.300781 40.738281 320.316406 40.082031 317.875 41.511719 C 315.03125 43.175781 314.585938 46.417969 315.855469 49.207031" style="fill: rgb(229, 142, 83);"/></g><g id="__id8_s1xickaggm"><path d="M 321.257812 77.023438 C 321.128906 92.09375 317.390625 106.121094 307.867188 118.054688 C 298.515625 129.773438 285.730469 138.648438 274.816406 148.8125 C 264.128906 158.761719 258.550781 170.105469 257.195312 184.617188 C 256.507812 192.007812 256.859375 199.5625 256.859375 206.980469 C 258.734375 205.105469 260.609375 203.230469 262.484375 201.355469 C 250.402344 201.355469 238.320312 201.355469 226.234375 201.355469 C 228.109375 203.230469 229.984375 205.105469 231.859375 206.980469 C 231.859375 201.007812 231.859375 195.035156 231.859375 189.0625 C 231.859375 175.839844 234.734375 163.867188 242.171875 152.820312 C 252.207031 137.921875 267.800781 127.550781 279.84375 114.445312 C 289.144531 104.324219 293.753906 93.089844 293.945312 79.339844 C 294.121094 66.742188 289.605469 54.664062 280.535156 45.859375 C 262.5625 28.40625 230.308594 29.128906 212.480469 46.160156 C 202.789062 55.421875 197.90625 68.214844 196.316406 81.265625 C 198.191406 79.390625 200.066406 77.515625 201.941406 75.640625 C 189.601562 74.226562 177.261719 72.8125 164.921875 71.398438 C 166.730469 73.773438 168.535156 76.144531 170.34375 78.519531 C 174.695312 49.183594 192.652344 24.738281 221.316406 15.378906 C 250.488281 5.855469 286.960938 11.902344 307.53125 35.75 C 312.277344 41.25 320.199219 33.257812 315.488281 27.796875 C 292.125 0.714844 251.378906 -5.527344 218.328125 4.53125 C 186.117188 14.332031 164.355469 42.769531 159.496094 75.527344 C 158.917969 79.421875 160.992188 82.199219 164.921875 82.648438 C 177.261719 84.0625 189.601562 85.476562 201.941406 86.890625 C 205.246094 87.269531 207.230469 84.023438 207.566406 81.265625 C 209.082031 68.816406 215.300781 56.589844 226.03125 49.675781 C 236.429688 42.984375 251.773438 42.78125 262.96875 47.542969 C 274.792969 52.574219 281.644531 63.453125 282.597656 76.035156 C 283.078125 82.355469 282.445312 89.15625 279.886719 95.011719 C 277.148438 101.265625 272.082031 106.597656 267.21875 111.253906 C 254.414062 123.511719 240.246094 134.898438 230.601562 149.96875 C 219.601562 167.164062 220.609375 187.207031 220.609375 206.710938 C 220.609375 206.800781 220.609375 206.890625 220.609375 206.980469 C 220.609375 210.046875 223.167969 212.605469 226.234375 212.605469 C 238.320312 212.605469 250.402344 212.605469 262.484375 212.605469 C 265.550781 212.605469 268.109375 210.046875 268.109375 206.980469 C 268.109375 199.535156 267.902344 192.046875 268.445312 184.617188 C 268.953125 177.695312 271.007812 171.289062 274.8125 165.484375 C 278.636719 159.652344 284.605469 154.984375 289.804688 150.421875 C 301.183594 140.429688 313.109375 131.015625 321.523438 118.234375 C 329.554688 106.03125 332.386719 91.414062 332.507812 77.023438 C 332.570312 69.765625 321.320312 69.773438 321.257812 77.023438" style="fill: rgb(229, 142, 83);"/></g><g clip-path="url(#__id5_s1xickaggm)" id="__id9_s1xickaggm"><path d="M 266.5 261.351562 C 266.179688 272.628906 257.398438 280.902344 246.289062 281.179688 C 235.433594 281.449219 226.386719 272.421875 226.078125 261.742188 C 225.742188 250.296875 235.472656 242.175781 246.289062 241.914062 C 257.492188 241.640625 266.195312 250.316406 266.5 261.351562 C 266.699219 268.59375 277.949219 268.613281 277.75 261.351562 C 277.265625 243.71875 263.695312 231.078125 246.289062 230.664062 C 228.785156 230.25 215.292969 244.746094 214.828125 261.742188 C 214.355469 279.023438 229.941406 292.019531 246.289062 292.429688 C 263.613281 292.867188 277.273438 278.167969 277.75 261.351562 C 277.957031 254.09375 266.703125 254.113281 266.5 261.351562" style="fill: rgb(229, 142, 83);"/></g><g id="__id10_s1xickaggm"><path d="M 105.75 204.164062 C 96.214844 206.421875 86.679688 208.683594 77.144531 210.945312 C 79.449219 212.253906 81.757812 213.5625 84.0625 214.871094 C 82.914062 210.03125 81.769531 205.1875 80.621094 200.34375 C 77.445312 186.941406 79.421875 174.917969 86.050781 162.90625 C 89.765625 156.179688 94.230469 149.835938 98.441406 143.410156 C 103.746094 135.324219 109.5 126.925781 110.386719 117.003906 C 112.550781 92.816406 94.804688 72 70.117188 73.203125 C 58.878906 73.75 47.496094 78.480469 40.066406 87.039062 C 31.894531 96.453125 29.027344 109.550781 30.328125 121.707031 C 32.203125 119.832031 34.078125 117.957031 35.953125 116.082031 C 25.953125 117.273438 15.949219 118.464844 5.945312 119.65625 C 7.820312 121.53125 9.695312 123.40625 11.570312 125.28125 C 10.410156 111.210938 12.90625 97.792969 20.25 85.632812 C 27.335938 73.898438 39.167969 65.75 51.882812 61.160156 C 77.109375 52.054688 108.042969 56.421875 122.492188 81.058594 C 128.730469 91.6875 131.417969 105.628906 129.492188 117.789062 C 127.296875 131.65625 117.914062 142.9375 109.9375 153.980469 C 102.226562 164.652344 96.21875 175.128906 97.3125 188.753906 C 97.917969 196.300781 100.078125 203.734375 101.820312 211.082031 C 103.492188 218.140625 114.339844 215.148438 112.667969 208.09375 C 110.796875 200.207031 108.414062 192.265625 108.371094 184.113281 C 108.296875 170.472656 120.925781 158.234375 128.152344 147.699219 C 136.09375 136.125 141.296875 123.867188 141.347656 109.632812 C 141.394531 96.46875 137.09375 82.433594 129.789062 71.519531 C 113.410156 47.054688 82.417969 41.652344 55.453125 48.328125 C 27.605469 55.222656 6.015625 76.863281 1.03125 105.316406 C -0.125 111.921875 -0.230469 118.613281 0.320312 125.28125 C 0.550781 128.046875 2.722656 131.289062 5.945312 130.90625 C 15.949219 129.714844 25.953125 128.523438 35.953125 127.332031 C 38.730469 127 41.933594 125.011719 41.578125 121.707031 C 40.421875 110.890625 42.699219 99.878906 50.761719 92.109375 C 58.070312 85.0625 70.515625 82.957031 80.058594 85.296875 C 90.089844 87.761719 95.90625 96 98.335938 105.523438 C 101.234375 116.894531 96.578125 125.761719 90.480469 135.0625 C 82.265625 147.589844 72.957031 159.992188 69.113281 174.6875 C 65.328125 189.160156 69.882812 203.796875 73.214844 217.863281 C 73.941406 220.921875 77.234375 222.476562 80.132812 221.792969 C 89.667969 219.53125 99.203125 217.273438 108.738281 215.011719 C 115.796875 213.339844 112.804688 202.492188 105.75 204.164062" style="fill: rgb(229, 142, 83);"/></g><g id="__id11_s1xickaggm"><path d="M 119.597656 252.1875 C 123.378906 271.261719 94.800781 277.660156 89.738281 259.167969 C 87.628906 251.453125 92.824219 243.933594 100 241.554688 C 108.75 238.652344 117.238281 243.5 119.597656 252.1875 C 121.496094 259.183594 132.347656 256.210938 130.445312 249.199219 C 126.503906 234.683594 112.859375 227.410156 98.449219 230.320312 C 83.8125 233.28125 76.121094 248.273438 78.890625 262.15625 C 81.78125 276.625 97.523438 283.707031 110.886719 281.035156 C 125.394531 278.132812 133.167969 262.933594 130.445312 249.199219 C 129.035156 242.085938 118.191406 245.105469 119.597656 252.1875" style="fill: rgb(229, 142, 83);"/></g><g clip-path="url(#__id6_s1xickaggm)" id="__id12_s1xickaggm"><path d="M 417.890625 210.289062 C 408.289062 208.324219 398.691406 206.359375 389.089844 204.398438 C 390.398438 206.703125 391.710938 209.011719 393.019531 211.316406 C 394.023438 206.414062 395.023438 201.511719 396.027344 196.609375 C 398.785156 183.117188 405.328125 172.832031 416.453125 164.6875 C 430.246094 154.585938 449.339844 147.871094 458.441406 132.738281 C 464.410156 122.816406 465.847656 109.152344 462.078125 98.261719 C 458.402344 87.644531 449.699219 80.355469 439.597656 76.179688 C 428.632812 71.652344 415.972656 71.976562 405.347656 77.089844 C 394.425781 82.347656 387.066406 93.351562 383.300781 104.492188 C 385.605469 103.183594 387.914062 101.875 390.21875 100.5625 C 380.644531 97.433594 371.070312 94.304688 361.496094 91.175781 C 362.804688 93.480469 364.113281 95.789062 365.425781 98.09375 C 369.855469 85.976562 377.355469 75.363281 387.914062 67.824219 C 399.394531 59.628906 413.304688 56.863281 427.191406 57.648438 C 453.453125 59.132812 480.886719 76.007812 484.207031 103.894531 C 485.722656 116.632812 482.371094 130.417969 475.585938 141.222656 C 468.085938 153.171875 454.5 159.511719 442.617188 166.167969 C 431.023438 172.667969 421.519531 179.449219 416.34375 192.132812 C 413.507812 199.085938 412.472656 206.882812 410.972656 214.21875 C 409.523438 221.296875 420.367188 224.3125 421.820312 217.207031 C 423.433594 209.316406 424.527344 200.910156 427.894531 193.550781 C 433.683594 180.910156 449.824219 175.261719 461.039062 168.613281 C 473.042969 161.503906 483.144531 152.714844 489.160156 139.875 C 495.03125 127.339844 496.886719 112.8125 494.824219 99.195312 C 490.519531 70.765625 464.199219 52.855469 437.746094 47.738281 C 409.058594 42.191406 380.917969 52.625 363.886719 76.488281 C 359.839844 82.152344 356.960938 88.589844 354.578125 95.105469 C 353.488281 98.082031 355.777344 101.132812 358.507812 102.023438 C 368.078125 105.152344 377.652344 108.28125 387.230469 111.410156 C 390.269531 112.40625 393.203125 110.277344 394.148438 107.484375 C 397.371094 97.941406 404.039062 89.199219 413.757812 85.652344 C 423.191406 82.210938 434.546875 84.945312 442.648438 90.394531 C 451.445312 96.304688 454.082031 107.085938 452.246094 117 C 450.09375 128.65625 442.566406 134.835938 432.933594 140.820312 C 420.324219 148.652344 406.558594 155.925781 396.949219 167.492188 C 387.28125 179.136719 385.101562 194.003906 382.171875 208.328125 C 381.589844 211.167969 382.953125 214.601562 386.101562 215.246094 C 395.699219 217.210938 405.300781 219.171875 414.898438 221.136719 C 421.980469 222.585938 424.996094 211.742188 417.890625 210.289062" style="fill: rgb(229, 142, 83);"/></g><g id="__id13_s1xickaggm"><path d="M 409.792969 258.988281 C 407.828125 267.175781 400.53125 272.535156 392.046875 271.082031 C 384.078125 269.714844 378.1875 261.972656 379.519531 253.886719 C 382.675781 234.800781 413.011719 239.785156 409.792969 258.988281 C 408.605469 266.082031 419.445312 269.121094 420.640625 261.976562 C 423.09375 247.367188 414.808594 234.339844 400.257812 230.941406 C 385.9375 227.597656 372.03125 236.828125 368.675781 250.894531 C 365.300781 265.03125 375.492188 278.734375 389.058594 281.929688 C 403.230469 285.269531 417.300781 275.890625 420.640625 261.976562 C 422.335938 254.925781 411.488281 251.933594 409.792969 258.988281" style="fill: rgb(229, 142, 83);"/></g></g></svg>