<svg xmlns="http://www.w3.org/2000/svg" xmlns:xlink="http://www.w3.org/1999/xlink" preserveAspectRatio="xMidYMid meet" version="1.0" viewBox="0.0 0.0 500.0 94.4" zoomAndPan="magnify" style="fill: rgb(0, 0, 0);" original_string_length="6507"><g id="__id2_s1xickaggm"><path d="M496.4266,1.5055l-89.1725,91.3501H3.5734L92.7459,1.5055H496.4266z" style="fill: rgb(246, 199, 157);"/></g><g id="__id3_s1xickaggm"><path d="M53.8475,62.0088c-9.6998,9.9366-1.4977,17.9429-11.1974,27.8796 c-1.2193,1.2491-2.4149,2.2139-3.5929,2.9672H11.0109c9.6996-9.9366,17.9014-1.9303,27.6012-11.8669 c9.6998-9.9367,1.4979-17.943,11.1977-27.8796c9.6985-9.9353,17.9002-1.9289,27.5987-11.8642 c9.6979-9.9348,1.4961-17.9411,11.194-27.8759c9.6981-9.9349,17.9-1.9286,27.5981-11.8635h7.1252 c0,0.5331-0.0694,1.1064-0.1876,1.696c-1.3027,6.5042-6.6148,11.5174-13.1473,12.671c-5.6895,1.0047-11.2212,0.1171-17.3505,6.3962 c-9.6979,9.9348-1.4963,17.9411-11.1942,27.8759C71.7479,60.0799,63.546,52.0735,53.8475,62.0088z M121.6859,50.1446 c9.6979-9.9348,1.4963-17.9411,11.1942-27.8759c6.1293-6.2791,11.661-5.3915,17.3505-6.3962 c6.5325-1.1536,11.8446-6.1668,13.1473-12.671c0.1182-0.5896,0.1876-1.1629,0.1876-1.696h-7.1252 c-9.6981,9.9349-17.9,1.9286-27.5981,11.8635c-9.6979,9.9348-1.4961,17.9411-11.194,27.8759 c-9.6985,9.9353-17.9002,1.9289-27.5987,11.8642c-9.6998,9.9366-1.4979,17.9429-11.1977,27.8796 c-9.6998,9.9366-17.9016,1.9303-27.6012,11.8669h28.0462c1.178-0.7533,2.3736-1.7181,3.5929-2.9672 c9.6998-9.9367,1.4977-17.943,11.1975-27.8796C103.7857,52.0735,111.9876,60.0799,121.6859,50.1446z M161.9256,50.1446 c9.6979-9.9348,1.4963-17.9411,11.1942-27.8759c6.1293-6.2791,11.661-5.3915,17.3505-6.3962 c6.5325-1.1536,11.8446-6.1668,13.1473-12.671c0.1182-0.5896,0.1876-1.1629,0.1876-1.696H196.68 c-9.6981,9.9349-17.9,1.9286-27.5981,11.8635c-9.6979,9.9348-1.4961,17.9411-11.194,27.8759 c-9.6985,9.9353-17.9001,1.9289-27.5987,11.8642c-9.6998,9.9366-1.4979,17.9429-11.1977,27.8796 c-9.6998,9.9366-17.9016,1.9303-27.6012,11.8669h28.0462c1.178-0.7533,2.3736-1.7181,3.5929-2.9672 c9.6998-9.9367,1.4977-17.943,11.1975-27.8796C144.0254,52.0735,152.2273,60.0799,161.9256,50.1446z M201.0316,50.1446 c9.6979-9.9348,1.4963-17.9411,11.1942-27.8759c6.1293-6.2791,11.6609-5.3915,17.3505-6.3962 c6.5325-1.1536,11.8446-6.1668,13.1473-12.671c0.1182-0.5896,0.1876-1.1629,0.1876-1.696h-7.1251 c-9.6981,9.9349-17.9,1.9286-27.5981,11.8635c-9.6979,9.9348-1.4961,17.9411-11.194,27.8759 c-9.6985,9.9353-17.9002,1.9289-27.5987,11.8642c-9.6998,9.9366-1.4979,17.9429-11.1977,27.8796 c-9.6998,9.9366-17.9016,1.9303-27.6012,11.8669h28.0461c1.178-0.7533,2.3736-1.7181,3.5929-2.9672 c9.6998-9.9367,1.4977-17.943,11.1975-27.8796C183.1314,52.0735,191.3333,60.0799,201.0316,50.1446z M241.2713,50.1446 c9.6979-9.9348,1.4963-17.9411,11.1942-27.8759c6.1293-6.2791,11.661-5.3915,17.3505-6.3962 c6.5325-1.1536,11.8445-6.1668,13.1473-12.671c0.1182-0.5896,0.1876-1.1629,0.1876-1.696h-7.1251 c-9.6981,9.9349-17.9,1.9286-27.5981,11.8635c-9.6979,9.9348-1.4961,17.9411-11.194,27.8759 c-9.6985,9.9353-17.9002,1.9289-27.5987,11.8642c-9.6998,9.9366-1.4979,17.9429-11.1977,27.8796 c-9.6998,9.9366-17.9016,1.9303-27.6012,11.8669h28.0461c1.178-0.7533,2.3736-1.7181,3.5929-2.9672 c9.6998-9.9367,1.4977-17.943,11.1975-27.8796C223.3711,52.0735,231.573,60.0799,241.2713,50.1446z M281.511,50.1446 c9.6979-9.9348,1.4962-17.9411,11.1942-27.8759c6.1293-6.2791,11.6609-5.3915,17.3505-6.3962 c6.5325-1.1536,11.8446-6.1668,13.1473-12.671c0.1182-0.5896,0.1877-1.1629,0.1877-1.696h-7.1252 c-9.6982,9.9349-17.9,1.9286-27.5981,11.8635c-9.6979,9.9348-1.4961,17.9411-11.194,27.8759 c-9.6985,9.9353-17.9002,1.9289-27.5987,11.8642c-9.6998,9.9366-1.4979,17.9429-11.1977,27.8796 c-9.6998,9.9366-17.9016,1.9303-27.6012,11.8669h28.0461c1.178-0.7533,2.3736-1.7181,3.5929-2.9672 c9.6998-9.9367,1.4977-17.943,11.1975-27.8796C263.6108,52.0735,271.8127,60.0799,281.511,50.1446z M321.7507,50.1446 c9.6979-9.9348,1.4962-17.9411,11.1942-27.8759c6.1293-6.2791,11.661-5.3915,17.3505-6.3962 c6.5325-1.1536,11.8445-6.1668,13.1473-12.671c0.1182-0.5896,0.1876-1.1629,0.1876-1.696h-7.1252 c-9.6981,9.9349-17.9,1.9286-27.5981,11.8635c-9.6979,9.9348-1.4961,17.9411-11.194,27.8759 c-9.6985,9.9353-17.9002,1.9289-27.5987,11.8642c-9.6998,9.9366-1.4979,17.9429-11.1977,27.8796 c-9.6998,9.9366-17.9016,1.9303-27.6012,11.8669h28.0462c1.1779-0.7533,2.3736-1.7181,3.5929-2.9672 c9.6998-9.9367,1.4977-17.943,11.1975-27.8796C303.8505,52.0735,312.0523,60.0799,321.7507,50.1446z M360.8568,50.1446 c9.6979-9.9348,1.4963-17.9411,11.1942-27.8759c6.1293-6.2791,11.661-5.3915,17.3505-6.3962 c6.5325-1.1536,11.8446-6.1668,13.1473-12.671c0.1182-0.5896,0.1877-1.1629,0.1877-1.696h-7.1252 c-9.6981,9.9349-17.9,1.9286-27.5981,11.8635c-9.6979,9.9348-1.4961,17.9411-11.194,27.8759 c-9.6985,9.9353-17.9002,1.9289-27.5987,11.8642c-9.6998,9.9366-1.4979,17.9429-11.1977,27.8796 c-9.6998,9.9366-17.9016,1.9303-27.6012,11.8669h28.0461c1.178-0.7533,2.3736-1.7181,3.5929-2.9672 c9.6998-9.9367,1.4977-17.943,11.1975-27.8796C342.9566,52.0735,351.1585,60.0799,360.8568,50.1446z M401.0966,50.1446 c9.6979-9.9348,1.4962-17.9411,11.1942-27.8759c6.1293-6.2791,11.661-5.3915,17.3505-6.3962 c6.5325-1.1536,11.8445-6.1668,13.1473-12.671c0.1182-0.5896,0.1876-1.1629,0.1876-1.696h-7.1251 c-9.6981,9.9349-17.9,1.9286-27.5981,11.8635c-9.6979,9.9348-1.4961,17.9411-11.194,27.8759 c-9.6985,9.9353-17.9002,1.9289-27.5987,11.8642c-9.6998,9.9366-1.4979,17.9429-11.1977,27.8796 c-9.6998,9.9366-17.9016,1.9303-27.6013,11.8669h28.0462c1.1779-0.7533,2.3736-1.7181,3.5929-2.9672 c9.6998-9.9367,1.4977-17.943,11.1975-27.8796C383.1964,52.0735,391.3981,60.0799,401.0966,50.1446z M476.0906,1.5055 c-9.6981,9.9349-17.9,1.9286-27.5981,11.8635c-9.6979,9.9348-1.4961,17.9411-11.194,27.8759 c-9.6985,9.9353-17.9002,1.9289-27.5987,11.8642C400,63.0457,408.2019,71.052,398.5021,80.9887 c-9.6998,9.9366-17.9016,1.9303-27.6012,11.8669h28.0461c1.178-0.7533,2.3736-1.7181,3.5929-2.9672 c9.6998-9.9367,1.4977-17.943,11.1975-27.8796c9.6985-9.9353,17.9004-1.9289,27.5987-11.8642 c9.6979-9.9348,1.4963-17.9411,11.1942-27.8759c6.1293-6.2791,11.661-5.3915,17.3505-6.3962 c6.5325-1.1536,11.8446-6.1668,13.1473-12.671c0.1182-0.5896,0.1877-1.1629,0.1877-1.696 C483.2159,1.5055,476.0906,1.5055,476.0906,1.5055z" style="fill: rgb(244, 164, 96);"/></g><g id="__id4_s1xickaggm"><path d="M92.1117,0L0,94.3614h407.8883L500,0H92.1117z M406.6196,91.3505H7.1465L93.3804,3.0109h399.4731 L406.6196,91.3505z" style="fill: rgb(251, 229, 165);"/></g></svg>