<svg xmlns="http://www.w3.org/2000/svg" xmlns:xlink="http://www.w3.org/1999/xlink" preserveAspectRatio="xMidYMid meet" version="1.0" viewBox="-1.2 -0.2 245.9 325.2" zoomAndPan="magnify" style="fill: rgb(0, 0, 0);" original_string_length="7454"><g id="__id29_sgoehhszi"><path d="M240.8,174.8c-2.8,14.4-14.3,25-27.9,27.2c0,2.4-0.3,4.8-0.8,7.2c-4.2,21.3-24.5,35.4-45.6,31.7 c0.1,2.7-0.1,5.5-0.7,8.4c-3.8,18.7-20.5,30.9-38.5,29.3c0.7,4.3,0.7,8.7-0.2,13.2c-4,20.1-23.3,33.2-43.1,29.3 c-19.8-3.9-32.7-23.4-28.8-43.5c0.5-2.7,1.3-5.2,2.4-7.7C37.1,265,24,244.5,28.2,223.4c1.2-6.1,3.7-11.6,7.2-16.3 c-17.4-6.9-27.9-25.6-24.1-44.8c0.7-3.5,1.8-6.7,3.3-9.8c-9.5-8.1-14.4-21-11.8-34.1c3.8-19.3,22.4-32,41.5-28.2 c8.4,1.6,15.4,6.2,20.4,12.3c9-10.7,23.2-16.3,37.7-13.4c13.5,2.7,24,12,28.8,23.9c8.8-7.3,20.7-10.8,32.7-8.4 c16.4,3.2,28.4,16.4,31.1,32.1c5.9-2.4,12.5-3.2,19.1-1.9C232.6,138.5,244.5,156.4,240.8,174.8z" style="fill: rgb(152, 63, 148);"/></g><g id="__id30_sgoehhszi"><path d="M228.8,16.2c0,0-2.4,37.7-30.2,58s-62.7,9-62.7,9s10.6-35.8,38.4-56.1C202.2,6.8,228.8,16.2,228.8,16.2z M109.6,19.7C90.5,4.2,70.8,9.5,70.8,9.5s-0.1,26.3,19,41.8c19.1,15.4,44.9,9.2,44.9,9.2S128.7,35.1,109.6,19.7z" style="fill: rgb(92, 193, 68);"/></g><g id="__id31_sgoehhszi"><path d="M237.5,148.1c-5.3-8-13.4-13.5-22.8-15.3c-6.2-1.2-12.4-0.7-18,1.2c-3.7-15.4-15.9-28.1-32.3-31.3 c-11.4-2.2-22.6,0.5-31.5,6.6c2.1-7.7,3.3-15.6,4.1-23.6c3.5,0.9,11.6,2.8,21.9,2.8c12.2,0,27.3-2.6,40.9-12.6 c28.3-20.6,30.9-58,31-59.6c0.1-0.9-0.5-1.8-1.4-2.1c-1.1-0.4-28-9.5-56.4,11.2c-19,13.9-30.1,34.6-35.4,46.9 c0.6-35.9-8.4-68.7-8.9-70.7c-0.3-1.1-1.5-1.8-2.6-1.5s-1.8,1.5-1.5,2.6c0.1,0.4,5.4,19.8,7.7,45c-3.8-8.9-10.5-20.8-21.6-29.7 C91.2,2.1,71.1,7.2,70.2,7.5c-0.9,0.2-1.6,1.1-1.6,2c0,1.1,0.1,27.5,19.8,43.4c11.1,8.9,24.1,10.9,33.6,10.9c5.1,0,9.2-0.6,11.4-1 c0.4,14-0.5,28.8-3.8,42.6c-5.9-9.2-15.3-16-26.7-18.3c-14.4-2.8-28.6,2.3-38.1,12.3c-5.2-5.6-12-9.7-20-11.3 C35,86.2,25,88.2,16.7,93.9c-8.3,5.7-13.9,14.3-15.9,24.2s0,19.9,5.6,28.3c1.7,2.5,3.6,4.8,5.7,6.8c-1.2,2.8-2.2,5.7-2.8,8.8 c-2.2,11,0,22.2,6.2,31.5c4.2,6.4,10,11.4,16.8,14.6c-2.9,4.5-5,9.6-6.1,15c-4.2,21.4,8.5,42.2,28.6,48.3c-0.7,1.9-1.2,3.8-1.6,5.8 c-4.2,21.2,9.5,41.8,30.4,45.9c2.5,0.5,5,0.7,7.5,0.7c7.6,0,15.1-2.3,21.6-6.7c8.6-5.8,14.5-14.7,16.5-25c0.8-3.8,0.9-7.6,0.6-11.4 c0.3,0,0.7,0,1,0c17.8,0,33.4-12.5,37.1-31.1c0.4-2.1,0.6-4.2,0.7-6.3c1.6,0.2,3.1,0.3,4.7,0.3c8.2,0,16.2-2.5,23.2-7.2 c9.2-6.3,15.5-15.8,17.7-26.8c0.4-2,0.6-3.9,0.7-5.8c13.7-2.9,25-13.8,27.9-28.5C244.7,165.8,242.8,156.1,237.5,148.1z M175.6,28.8 c22.8-16.6,45-12.6,50.9-11.1c-0.9,7.4-5.8,37.7-29.2,54.8c-20,14.6-44.1,12.2-55,10.1l46.2-34c0.6-0.4,0.9-1,0.9-1.7 c0-0.4-0.1-0.9-0.4-1.2c-0.7-0.9-2-1.1-2.9-0.4l-46.8,34.4C143.1,69.7,154.2,44.4,175.6,28.8z M91.1,49.6 C75.7,37.2,73.3,17.1,73,11.2c5-0.8,20.5-2,35.4,10.1c11.7,9.4,18.3,22.9,21.6,31.4L106.4,35c-0.9-0.7-2.2-0.5-2.9,0.4 c-0.7,0.9-0.5,2.2,0.4,2.9l27.4,20.6C124.1,60,105.5,61.2,91.1,49.6z M163.7,106.7c20.2,4,33.4,23.9,29.3,44.4 c-0.8,4.1-2.2,7.9-4.2,11.3c-2.3-0.9-4.7-1.6-7.2-2.1c-10.7-2.1-21.7,0.1-30.8,6.2c-0.7-1.4-1.5-2.7-2.3-4 c-5.8-8.8-14.7-14.8-25-16.8c-1.5-0.3-3-0.5-4.4-0.6c-0.1-2.8,0.2-5.6,0.7-8.4c1.4-7.1,4.7-13.3,9.2-18.2c0.8-0.1,1.5-0.6,1.8-1.4 c0.1-0.2,0.1-0.4,0.2-0.7C139.4,108.3,151.4,104.3,163.7,106.7z M138.1,204.5c-10-2-20.1,0.1-28.6,5.9c-1.6,1.1-3.1,2.3-4.5,3.6 c-1-2.2-2.1-4.3-3.5-6.4c-5-7.5-12.1-13.1-20.3-16.1c-0.8-4.4-0.9-9,0-13.7c3.8-19.2,22.3-31.8,41.3-28.1c9.2,1.8,17.1,7.1,22.3,15 s7.1,17.3,5.2,26.7c-1.1,5.4-3.3,10.4-6.5,14.6C141.9,205.4,140,204.9,138.1,204.5z M102.1,91.3c11.7,2.3,21,9.9,26,19.9 c-0.3,1-0.6,1.9-0.9,2.9c-5.8,5.7-9.9,13.2-11.6,21.8c-0.6,3-0.8,6.1-0.8,9.1c-9.7,0.3-18.7,4.2-25.6,10.6 c-4.8-13.3-16.2-23.9-30.9-26.8c-0.3-0.1-0.6-0.1-0.8-0.1c0-2.5,0.2-5,0.7-7.4C62.2,100.7,81.9,87.3,102.1,91.3z M9.9,144.1 C5,136.7,3.2,127.7,5,118.9s6.8-16.4,14.1-21.4c7.4-5,16.2-6.8,24.9-5.1c7.3,1.4,13.5,5.2,18.1,10.4c-3.9,5-6.7,11-8,17.7 c-0.5,2.6-0.8,5.2-0.8,7.7c-16.1-1.2-31.3,7.3-39.1,21.1C12.5,147.7,11.1,145.9,9.9,144.1z M19,191.2c-5.5-8.4-7.5-18.5-5.6-28.4 c3.6-18,19.3-30.6,36.8-30.6c2.4,0,4.8,0.2,7.1,0.7c14,2.8,24.6,13.2,28.5,26.1c-4.3,5-7.3,11.2-8.7,18.1c-0.9,4.5-1,8.9-0.4,13.1 c-0.5-0.1-1.1-0.3-1.7-0.4c-10.9-2.1-22,0.1-31.2,6.4c-3.5,2.4-6.5,5.2-9.1,8.4C28.5,201.7,23,197.2,19,191.2z M30.4,223.8 c2-9.9,7.6-18.5,15.9-24.1s18.3-7.7,28-5.8c9.8,1.9,18.2,7.6,23.8,16c1.5,2.3,2.8,4.8,3.8,7.4c-4.3,5-7.2,11-8.5,17.7 c-0.1,0.6-0.2,1.2-0.3,1.8c0,0.2-0.1,0.4-0.1,0.7c0,0.4-0.1,0.7-0.1,1.1c0,0.3-0.1,0.6-0.1,0.9c0,0.3,0,0.6-0.1,0.8c0,0.3,0,0.7,0,1 c0,0.2,0,0.4,0,0.6c0,1.3,0,2.5,0.1,3.8c-8.1-0.3-16.1,2-23,6.7c-5.7,3.9-10.2,9.1-13.2,15.2C38.2,262.1,26.6,243.2,30.4,223.8z M125.2,291.3c-1.8,9.2-7,17.1-14.7,22.3c-7.7,5.2-16.9,7.1-25.9,5.3c-18.7-3.7-30.8-22.1-27.1-41c1.8-9.2,7-17.1,14.7-22.3 c6.3-4.3,13.7-6.3,21.2-5.9c2.9,14.9,14.3,27.2,29.9,30.3c0.8,0.2,1.6,0.3,2.4,0.4C126,284,125.9,287.7,125.2,291.3z M163.9,248.8 c-0.1,0.6-0.2,1.1-0.4,1.7c0,0.2-0.1,0.4-0.2,0.6c-0.1,0.4-0.2,0.7-0.3,1.1c-0.1,0.2-0.1,0.4-0.2,0.7c-0.1,0.3-0.2,0.6-0.3,1 c-0.1,0.2-0.2,0.5-0.3,0.7c-0.1,0.3-0.2,0.6-0.3,0.9c-0.1,0.2-0.2,0.5-0.3,0.7c-0.1,0.3-0.2,0.6-0.4,0.8c-0.1,0.2-0.2,0.5-0.3,0.7 c-0.1,0.3-0.3,0.5-0.4,0.8c-0.1,0.2-0.3,0.5-0.4,0.7c-0.1,0.2-0.3,0.5-0.4,0.7c-0.1,0.2-0.3,0.5-0.4,0.7c-0.1,0.2-0.3,0.5-0.4,0.7 c-0.2,0.2-0.3,0.5-0.5,0.7c-0.1,0.2-0.3,0.4-0.4,0.6c-0.2,0.2-0.3,0.5-0.5,0.7s-0.3,0.4-0.5,0.6s-0.4,0.5-0.5,0.7 c-0.2,0.2-0.3,0.4-0.5,0.5c-0.2,0.2-0.4,0.5-0.6,0.7c-0.2,0.2-0.3,0.3-0.5,0.5s-0.4,0.5-0.7,0.7c-0.1,0.1-0.3,0.3-0.4,0.4 c-0.2,0.2-0.5,0.5-0.7,0.7c-0.1,0.1-0.3,0.2-0.4,0.4c-0.3,0.2-0.5,0.5-0.8,0.7c-0.1,0.1-0.2,0.2-0.3,0.2c-0.3,0.2-0.6,0.5-0.9,0.7 l-0.1,0.1c-2.8,2.1-6,3.7-9.4,4.8c0,0,0,0-0.1,0c-0.5,0.1-0.9,0.3-1.4,0.4h-0.1c-0.5,0.1-0.9,0.2-1.4,0.3h-0.1 c-0.5,0.1-0.9,0.2-1.4,0.3c-0.1,0-0.1,0-0.2,0c-0.5,0.1-0.9,0.1-1.4,0.2c-0.1,0-0.1,0-0.2,0c-0.5,0.1-0.9,0.1-1.4,0.1 c-0.1,0-0.1,0-0.2,0c-0.5,0-1,0.1-1.4,0.1c-0.1,0-0.1,0-0.2,0c-0.5,0-1,0-1.5,0h-0.1c-0.5,0-1,0-1.5-0.1h-0.1c-0.5,0-1-0.1-1.6-0.1 c-1-0.1-2-0.3-3-0.5c-14.2-2.8-24.5-14.2-26.7-27.8c-0.1-0.4-0.1-0.9-0.2-1.3c0-0.1,0-0.1,0-0.2c0-0.4-0.1-0.8-0.1-1.2 c0-0.1,0-0.3,0-0.4c0-0.4,0-0.8-0.1-1.1c0-0.2,0-0.3,0-0.5c0-0.3,0-0.7,0-1c0-0.2,0-0.4,0-0.6c0-0.3,0-0.6,0-0.9 c0-0.3,0-0.5,0.1-0.8c0-0.3,0-0.6,0.1-0.8c0-0.3,0.1-0.7,0.1-1c0-0.2,0-0.4,0.1-0.6c0.1-0.5,0.2-1.1,0.3-1.7 c1.8-9,6.9-16.8,14.4-21.9c5.7-3.9,12.2-5.9,18.9-5.9c2.2,0,4.4,0.2,6.5,0.6c8.9,1.7,16.5,6.9,21.5,14.5 C163.8,230.7,165.6,239.8,163.9,248.8z M210.1,208.8c-2,9.9-7.6,18.5-15.9,24.1c-7.6,5.2-16.6,7.3-25.6,6.2 c-0.5-6.5-2.6-12.7-6.3-18.3c-3.7-5.7-8.8-10.1-14.7-13c3.3-4.6,5.5-9.8,6.7-15.5c1.5-7.5,0.8-15-1.8-21.9c0.1-0.1,0.2-0.1,0.3-0.2 c6.3-4.3,13.5-6.5,20.8-6.5c2.4,0,4.8,0.2,7.2,0.7C201,168.4,214.1,188.3,210.1,208.8z M238.8,174.4c-2.5,12.7-12.1,22.1-23.8,25 c-0.7-14.9-9.3-28.4-22.3-35.3c2.1-3.7,3.6-7.8,4.5-12.3c0.9-4.7,1-9.3,0.4-13.8c3.3-1.2,6.8-1.8,10.4-1.8c2,0,4,0.2,6,0.6 c8.3,1.6,15.4,6.4,20.1,13.5C238.7,157.5,240.4,166,238.8,174.4z M197.2,185.9c6.2,12.7,4.4,20.7-1.7,32.7c-0.4,0.7-1.1,1.2-1.9,1.2 c-0.3,0-0.6-0.1-0.9-0.2c-1-0.5-1.5-1.8-0.9-2.8c5.6-11.3,7.1-17.8,1.7-29c-0.5-1-0.1-2.3,1-2.8 C195.5,184.5,196.7,184.9,197.2,185.9z M175,128c-0.9-0.8-1-2.1-0.2-3s2.1-1,3-0.2c5.3,4.7,6.1,8.9,5.7,15.5c-0.1,1.1-1,2-2.1,2 h-0.1c-1.2-0.1-2-1.1-2-2.2C179.6,134.2,179,131.5,175,128z M154.9,231.7c0.1,0.2,8.6,22.9-19.2,35.3c-0.3,0.1-0.6,0.2-0.9,0.2 c-0.8,0-1.6-0.5-1.9-1.2c-0.5-1.1,0-2.3,1.1-2.8c24.1-10.8,17.3-29.2,17-30c-0.4-1.1,0.1-2.3,1.2-2.7 C153.3,230.1,154.5,230.6,154.9,231.7z" style="fill: inherit;"/></g></svg>